<?xml version="1.0" encoding="utf-8"?>
<!-- Generator: Adobe Illustrator 18.1.1, SVG Export Plug-In . SVG Version: 6.00 Build 0)  -->
<!DOCTYPE svg PUBLIC "-//W3C//DTD SVG 1.1//EN" "http://www.w3.org/Graphics/SVG/1.1/DTD/svg11.dtd">
<svg version="1.1" id="Layer_1" xmlns="http://www.w3.org/2000/svg" xmlns:xlink="http://www.w3.org/1999/xlink" x="0px" y="0px"
	 width="650px" height="180px" viewBox="0 0 650 180" enable-background="new 0 0 650 180" xml:space="preserve">
<g>
	<path d="M607.4,149.5c-0.5,6.9-0.3,17-0.2,24.7c0.7,0.2,2.1,0.2,2.9,0c0.3-8.3,0.2-17,0-24.7C609.3,149.3,608.2,149.4,607.4,149.5z
		 M470.5,114.5L470.5,114.5L470.5,114.5z M501.1,159.8c-0.8-0.7-1.2-0.4-2.3-0.2c0.2-0.4,0.7-0.6,1.1-0.7c0.5,0.1,0.7,0.4,1,0.6
		c-0.2-1.1-0.4-2.3-1.1-2.4c0.2,0,0.4,0,0.4-0.2c-1.6-3.2-3.9-5.7-7.6-7c-0.1,0.2-0.1,0.4-0.7,0.2c-0.7-0.1-0.7-0.5-0.7-0.8
		c-4.3-0.6-8.8,0.4-10.3,2.5c-2.4,1.2-3.8,3.8-4.8,6.8c-0.1,0.2,0.2,0.2,0.2,0.4c-0.6,0.2-0.5,0.7-0.6,1.1
		c-1.3,8.5,5.8,14.2,12.1,14c-0.4,0.5,1,0.2,1.4,0.2c3.4,2,7.1,4.1,10.3,5.7c0.7-0.5,1.1-1.2,1.4-2.1c-2.1-2.1-5.3-2.8-7.6-4.7
		C498.6,171.2,501.7,167.2,501.1,159.8L501.1,159.8z M496.8,176.2c0.2,0.4,0.7,0.4,0.8,1.1c-0.4-0.3-1.4,0-1.4-0.7
		C496.6,176.7,496.6,176.4,496.8,176.2z M495.9,175.6c0.2,0.1,0.1,0.6,0.6,0.4c-0.2,0.2-0.2,0.5-0.7,0.4
		C495.6,176,496.1,176,495.9,175.6z M497.9,154.3c0.4-0.1,0.5,0.2,0.4,0.6c-0.4,0-0.6-0.1-0.6-0.4
		C497.9,154.5,497.9,154.4,497.9,154.3z M492.9,152.4c-0.3-0.3-1.1-0.2-1.6-0.4C491.9,151.4,492.8,151.5,492.9,152.4z M481,155.2
		c-0.5-0.2-1-0.2-1.1-0.7C480.3,154.7,481.1,154,481,155.2z M480,157.1c0,0.1-0.2,0.2-0.2,0.2h-0.2c0-0.2-0.2-0.3-0.2-0.6
		C479.9,156.7,479.8,157.1,480,157.1z M476,160.6c0.2-0.2,0.3,0.1,0.8,0c-0.2,0.4-0.4,0.9,0.2,1C476.8,161.9,476.2,161,476,160.6z
		 M478.3,157.7c0.5,0,0.6,0.2,0.7,0.6C478.7,158.2,478.2,158.3,478.3,157.7z M479.7,167.6c0.3,0.2,0,0.5,0.6,0.2
		C480.4,168.7,479.2,168,479.7,167.6z M487.7,171.7c-3.5-0.3-5.9-2.3-7.4-4.9c-0.2,0.1-0.2,0.2-0.2,0.2c0-0.3,0.1-0.9-0.2-1.4
		c-0.3,0-0.7,0-0.8-0.2c0.1-0.4,0.5,0.1,0.7,0c-1.5-4.5,0.2-8.9,2.7-11.1c0.7-0.6,1.9-1,2.5-1.4c0.4-0.3,0-0.2,0.7-0.2
		c0.9-0.1,2.8-0.5,2.7-0.8c0.2,0.1,1.1,0.9,1.4,0.2c2.1,0.8,3.4,1.2,5.1,2.3c0.4-0.1-0.2-0.3,0-0.6c1-0.2,1.1,0.6,1.6,1
		c-0.7,0.3-0.9-0.2-1.4-0.2c1.1,1.2,1.7,3,3,3.9c0.1,0.3-0.2,0.2-0.2,0.4C499.5,166.1,494.7,172.2,487.7,171.7L487.7,171.7z
		 M592.6,171.3c-2.4-2.5-4.8-5-6.6-7.4c2.7-0.2,4.9-1.6,5.8-3.5c0.5-1.1,1.1-2.3,1.1-3.9c-0.1-5.8-6.6-8.4-12.3-6.8
		c-0.1-0.7-2.4-0.3-3.5-0.4c-1.1,1.2-0.2,3.3-0.2,4.7c0,2-0.6,4.1-0.2,6.4c1,0.2,0.6-0.5,1.1-0.2c-0.1,0.6-1.1,0.1-1.1,0.7
		c0,4.1-0.1,9.4,0.2,12.1c0,0.4,0.6-0.7,0.6,0.2c-0.1,0.2-0.9-0.2-0.7,0.6c0.2,1,2.5,0.6,3.1,0.2c0.2-0.7-0.6-0.5-0.6-1h0.2
		c0,0.3,0.5,0.1,0.6,0c-0.1-3.9-0.2-6.6,0-10.7c2.6,2.6,5.7,6.2,8.6,9.2c1.6,1.6,3.1,3.9,6.1,2.5
		C594.7,172.7,593.4,172.2,592.6,171.3L592.6,171.3z M577.9,167.2c-0.3-0.1-0.5,0-0.6,0.2C576.7,167.1,578,166.3,577.9,167.2z
		 M579.4,173.8c-0.2-0.2-0.7,0-0.7-0.4C579.1,173.4,579.4,173.4,579.4,173.8z M578.3,161.2c0-0.3,0.5-0.2,0.8-0.2
		C579.2,161.2,578.7,161.2,578.3,161.2z M585.4,151.6c-0.1,0.2-0.2,0.2-0.2,0.4c-0.2-0.1-0.4-0.4-0.4-0.7
		C585.1,151.2,584.9,151.9,585.4,151.6z M584,151.1c0.1,0.5-0.6,0.2-0.4,0.7c-0.4,0.1-0.4-0.4-0.7-0.4
		C583,151.1,583.5,150.9,584,151.1z M579.8,155.1c0.1-0.4-0.2-0.6-0.4-0.7c0.6-0.1,0.4-0.9,0.4-1.6v-0.4c3.4,0,7.9-0.5,9.4,2.3
		c0.6,1.1,0.7,3,0,4.4c-1.4,2.6-5.1,2.2-9.4,2.4C579.8,159.4,579.5,157,579.8,155.1z M393.8,113.5c0.2,0.4-0.4,0.7,0,0.8
		c0-0.3,0.1-0.5,0.4-0.4c-0.1,0.2-0.2,0.2-0.2,0.6c0.5-0.1,0.7-0.4,0.8-0.7C394.4,113.9,394.3,113.5,393.8,113.5z M558.2,163.3
		c-0.1-0.4-0.4-0.5-0.7-0.6v0.4C557.6,163.3,557.9,163.3,558.2,163.3z M288.8,70c0.3-0.1,0.7-0.1,0.7-0.6c-0.2,0-0.3-0.2-0.6-0.2
		C289,69.6,288.7,69.6,288.8,70L288.8,70z M502.5,104.1c-0.2,0.4,0.2,0.3,0.2,0.6c0,0.2-0.1,0.2-0.2,0.2c0.4,0,0.4-0.3,0.4-0.7
		C502.9,104.2,502.9,104,502.5,104.1z M465.7,172.9c0.2,0,0.3-0.1,0.4-0.2c-0.8-1.2-0.8-3.3-2.3-3.9c0-0.2,0.4-0.1,0.4-0.2
		c-1.3-2.5-2.2-5.5-3.9-7.8c0.3-0.2-0.5-2.1-1-2c0.2-0.7-0.5-2.1-1-2.9c0.1,0.2-0.7,0-0.8-0.2c0.1-0.3,0.7,0,0.7-0.4
		c-0.2-0.5-1,0-1.3-0.6c0.4,0,0.8-0.1,1,0.2c-0.3-0.9-0.8-2.3-1.3-2.5c0.2,0.2,0.1,0.4-0.2,0.4c0-0.2,0.1-0.5-0.2-0.6
		c-0.2,0.5-1.3,0.2-0.8-0.2c0.3-0.2,0.2,0.3,0.2,0.2c2,0.5-0.2-3-0.4-3.5c-0.5-0.1-0.7,0.2-1,0.2c0.4,0.7-1,1-0.4,1.8
		c-0.4-0.1-0.4,0.3-0.6,0.6c0.2-0.1,0.5,0.5,0.2,0.6c0-0.2-0.1-0.3-0.2-0.2c0.2,0.7-1,1-0.2,1.6c-1,0.5-1.2,1.7-1.6,2.9
		c0.7,0.2,1.5-0.3,1.8,0c-0.3,0.2-0.6,0.3-0.8,0.4c-0.3-0.2-0.7-0.3-1.3-0.2c-0.2,0.6,0.2,0.5,0.4,0.7c0,0.4-0.1,0.6-0.4,0.6
		c0-0.2,0.2-0.3-0.2-0.2c-0.6,1.1-2.2,2.9-1.3,4.1c-0.4,0.1-0.4-0.2-0.7-0.2c0,0.7-0.5,0.8-0.6,1.4c0.7,0.1,0.9-0.4,1-0.6
		c0.2,0,0.2,0.2,0.2,0.2c-0.4,0.5-1.5,0.3-1.6,1.1c0.2,0.2,0.7,0.1,0.8,0.4c-0.3,0.4-0.6,0.1-1.1,0c-0.1,0.4-0.7,0.9-0.2,1.1
		c-0.2,0.5-0.7,0.5-0.7,0.8c0.1,0.4,0.6,0.2,0.7,0.6c-0.5,0.2-1-0.7-1,0c-0.5,0.5,1.1,0.1,1.3,0.4c0,0.2-0.2,0.2-0.2,0.2
		c-0.5-0.1-0.7-0.4-1.3-0.2c-0.2,0.5,0.5,0.1,0.2,0.6c-0.5-0.5-0.3,0.3-0.7,0.8c0.7-0.1,1.3-0.5,1.1-0.8c0.9,0.4-0.6,0.7-0.6,1.1
		c0.7,0.2,0.6-0.6,1.1-0.6c-0.1,0.5-0.5,0.7-0.7,1c-0.5-0.1-0.9-0.2-1.3-0.4c-0.4,1-0.9,1.9-1.3,3c0.2,0.4,0.7,0.2,0.8,0.2
		c-0.2,0.2-0.2,0.5-0.4,0.6c-0.2-0.2-0.5-0.2-0.8-0.2c-0.2,0.7-1,1.6-0.2,2.3c1-0.1,2.4,0.2,3-0.2c0.2-0.4-0.4-0.7,0-0.8
		c0,0.1,0,0.2,0.2,0.2c0.2-0.4,0.4-0.9,0.6-1.4c-0.6-0.2-0.7-0.1-1.1-0.2c0-0.2,0.2-0.2,0.2-0.2c0.7,0.5,0.3,0,0.4-0.2
		c0.5-0.2,0.2,0.5,0.6,0.6c0.3-0.3-0.2-0.4-0.2-0.8c0.4-0.1,0.3-0.6,0.8-0.6c0-0.7-0.8-0.6-0.8-0.6c0.2-0.2,0.2-0.5,0.4-0.6
		c0.3,0.2,0.2,0.3,0.7,0.2c-0.2-0.7-0.1-0.7,0.2-0.2c0.7-0.8-1.5-0.9-0.4-1.6c0.2,0.2,0.1,0.7,0.4,0.7c0.7-0.2,0.7-1.1,1-1.6
		c-0.5,0-1-0.1-1.1-0.4c0.3,0,0-0.7,0.4-0.6c0,0.2,0.2,0.2,0.2,0.2c0.2-0.3-0.6-0.4-0.2-0.6c2.3,0.5,7.2,0.2,10.5,0.2
		c0.2-0.2-0.4-0.5,0-0.6c0.3,0,0.4,0.2,0.6,0.4c-0.1,0-0.4-0.1-0.4,0c-0.4,1.1,1.6,4.7,2.5,4.4c0,0.4-0.6,0.2-0.6,0.7
		c0.7,1.1,0.8,3,2,3.7c0.7-0.2,3.1,0.7,2.9-1C466.4,173.1,465.9,173.1,465.7,172.9L465.7,172.9z M448.1,168.4
		c-0.1,0.2-0.3,0.2-0.6,0.2c-0.1-0.3,0.1-0.4,0.2-0.6C447.9,168.1,447.9,168.4,448.1,168.4z M448.3,165.3c-0.2,0-0.7,0.2-0.6-0.2
		c0.2,0,0.3-0.2,0.6-0.2V165.3z M457.2,155.5c-0.2,0.4-0.8-0.4-0.4-0.7C457.1,154.8,456.9,155.4,457.2,155.5z M457.3,153.9
		c-0.2,0.2-0.5,0.3-0.8,0.4C456.5,153.9,457.2,153.7,457.3,153.9z M455.3,150.8c0.4-0.1,0.7,0.2,0.6,0.6
		C455.4,151.4,455.3,151.2,455.3,150.8z M455.6,154.5c0.1,0.4-0.2,0.7-0.6,0.6v-0.6H455.6z M453.8,153c-0.2,0.4-0.4-0.2-0.8,0
		C453,152.4,453.6,152.7,453.8,153z M453,154c-0.1-0.5,0.5-0.2,0.6-0.6c0.4,0.5,0.8-0.2,1.3,0.4c0.5-0.2-0.4-0.1-0.2-0.4
		c0.2-0.1,0.3-0.2,0.6-0.2v0.8C454.4,154.2,453.5,154.3,453,154z M454.2,154.8c-0.1,0.1-0.2,0.2-0.2,0.4h-0.8
		C453.3,154.8,453.9,154.9,454.2,154.8z M452.8,158c-0.2,0.2-0.2,0.5,0.2,0.6c-0.2,0.3-0.7-0.2-0.7-0.6H452.8z M451.4,159.2
		c-0.1,0.3-0.7,0.1-0.8,0C450.6,158.9,451.2,159,451.4,159.2z M450.1,164.5c-0.5,0.2-0.2-0.5-0.4-0.6c-0.3,0-0.4,0.1-0.4,0.4
		c-0.7-0.1,0.3-0.5-0.2-0.7c-0.1-0.3,0.7,0.1,0.4-0.4c0.6-0.1,0.4,0.4,0.8,0.4C450.2,164,449.8,164,450.1,164.5L450.1,164.5z
		 M449.7,161.7c0-0.2,0.2-0.1,0.4-0.2c-0.1-0.2-0.1-0.2-0.2-0.2c0.2-0.3,0.8,0.1,0.7,0.4H449.7L449.7,161.7z M451.1,161.2
		c-0.5,0.1-0.6-0.3-0.6-0.7C448.9,160.1,451.7,160.3,451.1,161.2z M450.7,162.6c0-0.4,0.1-0.6,0.4-0.6
		C451.2,162.4,451.1,162.6,450.7,162.6z M452,164.4c-0.5,0.2-0.3-0.3-0.6-0.4C451.6,163.6,452.1,163.9,452,164.4z M455.6,163.1
		c-0.5-0.1-0.7,0.1-1,0.2c0.1-0.2,0.2-0.2,0.4-0.2c-1-0.7-3.4,0-3.9-0.2c0.7-0.2,0.9-0.9,0.2-1.3c0.2,0,0.3,0.1,0.4,0.2
		c0.3-0.1,0.2-0.7,0.4-0.7c-0.2-0.2-0.7-0.2-0.6-0.7c0.3-0.1,0.3,0.2,0.7,0.2c0.9-1.7,1.7-3.5,2.4-5.4c0.2,0.2,0.4,0.5,0.4,1h0.7
		c0.2,0,0.2-0.2,0-0.2c0.1-0.4,0.3,0.2,0.6,0c0.1,0.4-0.2,0.5-0.2,0.8c-0.2-0.1-0.5-0.2-0.8-0.2c0.2,0.7,0.2,0.8,0.8,0.8
		c0.3-0.3-0.2,0.5-0.4,0c-0.1,0.5,0.3,0.6,0.2,1c0.5-0.1,0.6,0.2,0.8,0.2c-0.1,0.4-0.3-0.2-0.6,0c0.4,1.5,1.1,2.7,1.7,4.1h-2.5
		C455.4,162.8,455.7,162.9,455.6,163.1L455.6,163.1z M457.7,164.1c0-0.4,0.6-0.2,1-0.2C458.6,164.1,458.2,164.1,457.7,164.1z
		 M460.4,164.8c-0.3-0.1-0.7-0.1-0.6-0.6C460.1,164.4,460.5,164.4,460.4,164.8z M461.8,167.2c-0.1-0.1-0.2-0.2-0.4-0.2
		c-0.2-0.5,0.5-0.2,0.4-0.6C462.3,166.7,461.7,166.9,461.8,167.2z M462.4,170.8v-0.8c0.7,0.2,0.6,1,1,1.4
		C463.1,171.2,462.7,171,462.4,170.8z M642.5,95.3c-4.5-8.1-13.2-11.3-23.2-13.9c-0.5-0.2-0.6,0.6-0.8,0.2c0-0.2,0.2-0.2,0.2-0.2
		c-6.6-2-14-3.1-16.3-9.5c0,0.2-0.2,0.2-0.2,0.2c0.1-0.4,0.4-0.7,0.2-1.3c-0.3-0.1-0.9,0.1-1-0.6c0.4-0.2,0.8,0.7,0.8,0
		c0.2-0.5-0.5-0.1-0.4-0.4c0.1-0.2,0.6-0.1,0.4-0.6c0.8-8.7,7.6-12.1,17.2-11.7c0.3,0.1-0.1-0.7,0.4-0.4c0,0.4-0.2,0.2,0,0.6
		c7.6,0.7,11.5,5.1,13.2,11.7c3.6,0,7.6-0.9,10.5-2.1c0.2-0.7,0.2-1.6,0-2.3c-2.4-11.2-13.5-19.4-28.1-18.5
		c-12.1,0.7-22.8,8.1-24.4,20.1c-1.4,10.5,3.8,17,10.3,20.4c5.8,3,13,4.2,19.9,6.2c6.6,2,12.6,5.2,12.3,13.2
		c-0.2,5.6-3.4,8.9-7,11.5c-3.6,2-9.5,2.5-14.1,2.1c0.2,0.2,0.3,0.6,0.2,1.1c-0.2,0-0.2-0.4-0.6-0.2c0.2,0.4,0.4,0.9-0.2,1
		c0.7-1.3-1.1-1.5-1.3-2.1c0,0.2-0.1,0.3-0.2,0.2c0.1-0.3-0.2-0.3-0.2-0.7c-0.7-0.1-1.1-0.7-1.8-0.2c-1.2-1.1-3-1.8-4.4-2.9
		c-1.1-1.6-2.6-2.8-3.5-4.7c-1-2-0.9-4.3-1.8-6.5c-3.4-0.1-6.5,1.1-9.8,1.6c0.2,1-0.3,0.5-0.7,0.7c0.1,4.7,1.8,7.7,3.3,10.9
		c1.7,1.8,3,5,6,6c-0.3,1.1,1.1,1.1,1.4,0.8c-0.2,0.1-0.3,0.2-0.2,0.4c0.3,0.1,0.9-0.2,1,0.2c0,0.2-0.5,0.1-0.4,0.4
		c1.2,0.7,2.2,1.5,3.5,2c0.6,0,0.5-0.7,1-0.7c0.1,0.4-0.9,0.9-0.2,1c0.6,0.5,0.1-0.4,0.8-0.2c0.1,0.4-0.2,0.2-0.2,0.6
		c5.1,2.1,14.2,3.4,20.1,1.1c1.5,0.3,4.8-1.1,6.2-2c-0.3,0-0.1-0.7,0.2-0.6c0,0.2,0,0.5,0.2,0.4c5.7-2.9,9.4-6.3,12.2-12.2
		c0-0.4-0.9-0.6-0.6-0.8c0.6-0.2,0,0.7,0.6,0.4c0.3-0.7,1.5-2.2,0.6-2.7c0.2-0.6,0.7,0.2,0.6-0.6c-0.4-0.2-1.3,0-1.7-0.6
		c0.8-0.1,1,0.4,1.8,0.2c0.3-0.3-0.2-0.4-0.4-0.7c0.5,0,0.6-0.2,0.7-0.6c-0.2-0.3-1.7,1.2-2,0c1.4,1,3-1.5,1.7-2
		c0.2,0,0.3,0.2,0.6,0.2c0.4-4.9-0.2-9.8-2.4-12.8C643,95.7,642.5,95.7,642.5,95.3L642.5,95.3z M607.5,50.5c0,0.2-0.7,0.5-0.7,0.2
		C606.7,50.3,607.3,50.6,607.5,50.5z M603.4,54.8c0.2-0.2,0.8-0.2,0.7,0.2C603.9,55,603.3,55.2,603.4,54.8z M602,54.9
		C601,55.4,600.9,54.3,602,54.9z M605.1,76c0.2,0.1,0.2,0.5,0.2,0.7C604.8,77,605,76.2,605.1,76z M616,81.9v-0.2
		c0.5,0.2,0.8,0.5,1,1C616.5,82.5,616.5,82,616,81.9z M622.3,84.4v0.2c-0.5-0.1-0.8-0.3-0.8-0.8c0.5,0,0.5,0.5,1,0.4
		C622.4,84.4,622.4,84.4,622.3,84.4z M623.8,91.8c-0.2-0.5-0.4-0.2-0.8-0.4C623.2,91,624.1,91.2,623.8,91.8z M623.7,84
		c0.1-0.2,1.1-0.7,1.3-0.2C624.4,83.8,624.2,84.1,623.7,84z M627.5,90.3c0.5-0.5-0.3-0.4-0.2-0.8c0.2-0.1,0.4-0.2,0.7-0.2
		C627.9,89.8,628.1,90.5,627.5,90.3L627.5,90.3z M627.9,93.4c-0.1-0.4,0.5-0.2,0.2-0.7h0.4C628.6,93,628.4,93.3,627.9,93.4z
		 M588.7,108c0.1-0.2,0.2-0.2,0.2-0.4c0.2,0.1,0.4,0.2,0.4,0.6C589,108.2,589,107.9,588.7,108z M589.7,107.2
		c0.2-0.2,1.1,0.2,1.1,0.6C590.2,108.3,590.2,107.3,589.7,107.2z M591.7,109.1c0.1-0.3,0.4-0.3,0.6-0.6
		C592.6,108.7,592.1,109.2,591.7,109.1z M591.3,106.4c0.1,0.1,0.8,0.3,0.7-0.2c0.7,0-0.2,0.3-0.2,0.6c0,0.3,0.7,0,0.7,0.2
		C592.3,107.6,591.2,107.2,591.3,106.4L591.3,106.4z M593.1,108c0.4,0.3,0.7,0.8,0.8,1.4C593.2,109.3,593.1,108.6,593.1,108z
		 M594.4,119.7c-0.2,0-0.2,0-0.2,0.2c-0.2-0.1-0.1-0.3-0.2-0.6c0.3,0.1,0.4,0.5,0.7,0.6C594.5,120.1,594.3,120,594.4,119.7z
		 M594.5,108.4c-0.2-0.2,0-0.2,0-0.6c0.4,0.1,0.3-0.2,0.7-0.2C594.9,107.9,594.9,108.4,594.5,108.4z M597.6,122.8
		c-0.4,0-0.7-1,0-0.8C597.3,122.3,597.6,122.5,597.6,122.8z M598.9,124.7c0.2-0.6,0.7,0,0.7,0.4
		C599.1,125.2,599.4,124.6,598.9,124.7z M602.6,120.7c0.1-0.1,0.2-0.2,0.2-0.4c0.5-0.1,0.8,0.1,0.8,0.6
		C603.1,120.8,603.1,120.4,602.6,120.7z M604.6,121c0-0.3,0.6-0.1,0.8-0.2C605.4,121.3,604.7,121.2,604.6,121z M605.5,122.2
		c0-0.2,0.2-0.1,0.4-0.2c0.1-0.2-0.2-0.8,0.2-0.7C606.4,121.9,605.9,122.4,605.5,122.2L605.5,122.2z M605.9,120.1
		c-0.1-0.5,0.2-0.4,0.2-0.7C606.4,119.5,606.3,120.3,605.9,120.1z M609.4,120.6c0.1-0.1,0.2-0.2,0.2-0.4c0.1,0.1,0.2,0.2,0.4,0.2
		C610,120.8,609.6,120.8,609.4,120.6z M626.8,125c0.1-0.3,1-0.2,1.1,0C627.7,125,627.2,125.1,626.8,125z M627.4,120.9
		c0.1-0.2,0.3-0.3,0.2-0.7c0.2,0,0.2,0.2,0.4,0.2C628.1,120.8,627.8,120.8,627.4,120.9z M628.9,122.6c0.4,0,0.2,0.5,0.8,0.2
		c-0.2,0.7,0.1,0.5,0.2,1C629.3,123.9,629.3,123.1,628.9,122.6z M629.4,121c0.4-0.1,0.5,0.2,0.8,0.2
		C630.2,121.4,629.2,121.4,629.4,121z M630.4,125c0.4-0.1,0.5,0.2,0.8,0.2C631.2,125.4,630.2,125.5,630.4,125z M633.9,122.8
		c0-0.4,0.3-0.4,0.7-0.4C634.5,122.7,634.3,122.9,633.9,122.8z M641.9,109.1c-0.5,0.1-0.7-0.2-0.8-0.4c0.1-0.5,1,0.6,0.8-0.2
		C642.3,108.6,641.7,108.8,641.9,109.1z M643.7,108.4c0,0.2,0.2,0.3,0.2,0.6c-0.2,0-0.3,0.2-0.6,0.2c-0.1-0.2-0.2-0.2-0.2-0.2
		C643.1,108.5,643.4,108.5,643.7,108.4L643.7,108.4z M285.3,120.1c0.6,0.2,1.5,0.3,2,0C286.7,119.9,285.9,119.9,285.3,120.1z
		 M401.8,78.2c-0.6,0.1-0.7-0.3-0.7-0.7c0.2-0.1,0.2,0.2,0.4,0.2c-2.5-9.6-7.7-16.7-14.6-22c-0.3,0.2-1,0.2-1.1-0.2
		c0-0.3,0.5-0.2,0.6-0.4c-1.9-1.6-4.3-2.7-6.6-3.9c-5.4-2.7-13.2-4.9-21-4.5c-14.2,0.7-24.9,8-31,16c0.2,0,0.3,0.1,0.4,0.2
		c-0.2,0-0.3-0.2-0.6-0.2c-6.2,7.2-9.8,19.1-8.4,31.4c0.5,3.9,1,6.2,2.1,9.5c0.4,0.1,0.3-0.2,0.7-0.2c-0.9,1.9,1.4,3.8,1.8,5.7
		c0.6,0,0.6-1,1-0.2c0,0.4-0.7,0.2-0.7,0.7c2.5,4.3,5.8,8.5,9.5,11.2c0.2,0.8,0.9,0.7,1.4,0.8c-0.1,0.7,0.7,1.2,1.1,1
		c-0.1,0.8,1.8,1.3,2.1,1.7c0.6,0.2,0.9,0.4,1.4,1c0.3,0.2,0.5-0.6,0.7-0.2c0,0.2-0.4,0.1-0.4,0.2c0.7,0.4,1.6,0.7,2.4,0.8
		c-0.2,0-0.5-0.1-0.6,0.2c5.2,2.2,10.7,4.3,18.5,4.4c0.4-0.2-0.3-0.7,0-0.8c0.3,0.1,0.1,0.9,0.6,0.8c1.1-0.2,2.7,0.4,3.3-0.6
		c0,1,0.9,0.2,1.1,0c-0.2,0.6,2,0.2,2.1-0.2c0,0.7,1.1,0.2,1.3,0c-0.5-0.2,0.1-0.8-0.4-1.1c0.2,0.2,0.7,0.5,0.4,0.8
		c0.6,0.2,0.7-0.7,1-0.4c-0.2,0-0.7,0.5-0.2,0.7c5-1.3,9.3-2.5,12.8-5.3c1.7-0.3,3.3-2.1,4.8-3c0.2-0.2-0.4-0.5,0-0.6
		c0.6,0.7,1.5-0.8,2.1-1.4c1.4-1.3,3.3-2.9,4.3-4.4c-0.2,0-0.3-0.2-0.2-0.4c0.2,0.4,1.1-0.2,0.7-0.4c-0.6,0.1-1.3,0.5-1.6-0.4
		c1.1-0.2,1.2-1.3,2.4-1.4c0,0.3,0,0.7,0.2,0.7c0.4-0.7,1-1.1,1.3-2c0-0.3-0.5-0.2-0.6-0.4c0.5-0.1,0.7,0.3,1,0
		c0.2-0.9,1-1.8,1.4-2.4c2.4-3.5,3.9-10.6,4.5-15.4c0.1-0.9,0.5-2.4,0-2.9C403.5,86.6,402.4,82,401.8,78.2L401.8,78.2z M387.8,57.7
		c0.5-0.2,0.4,0.3,0.8,0.2C388.5,58.3,387.6,58.2,387.8,57.7z M389.3,68.8c0,0.3-0.3,0.3-0.7,0.2c0.1-0.1,0.2-0.2,0.2-0.4
		C389,68.7,389,68.8,389.3,68.8L389.3,68.8z M387.2,62c0,0.4-0.7,0.3-0.8,0.2C386.4,61.8,387,62.1,387.2,62z M384.1,58.6
		c-0.5-0.2-0.7-0.6-1.1-0.7C383.4,57.6,384.1,58.1,384.1,58.6z M383.9,63.8c-0.5,0.1-0.4-0.2-0.7-0.2c0-0.2,0.2-0.1,0.2-0.2
		c0.2,0,0.1,0.2,0,0.2C383.4,63.7,384.1,63.3,383.9,63.8z M366.4,47.7c-0.2,0.2-0.5,0.2-0.8,0.2C365.6,47.6,366.2,47.5,366.4,47.7z
		 M346.8,58.9c0,0.5-0.9,0.3-0.8-0.2C346.4,58.6,346.4,59,346.8,58.9z M329.1,67.3c-0.4,0.1-0.6-0.2-0.8-0.2
		C328.5,66.6,329.1,66.7,329.1,67.3z M328.5,81.5c0.2,0.2,0.2,0.5,0.2,0.8c-0.2-0.2-0.7-0.2-0.8-0.6
		C327.9,81.4,328.2,81.4,328.5,81.5z M324.6,96.6h0.7c0,0.5-0.2,0.7-0.6,0.7C324.9,96.9,324.5,97,324.6,96.6L324.6,96.6z
		 M324.3,89.1h0.6C324.9,89.7,324.2,89.7,324.3,89.1z M323.1,105.4c0.1-0.4-0.2-0.5-0.6-0.4c0.2-0.2,0.1-0.5,0.4-0.4
		c0,0.6,0.2,0.7,0.7,0.6C323.6,105.3,323.4,105.3,323.1,105.4L323.1,105.4z M323.5,103.3c0.2-0.7-0.7-0.3-0.4-1
		c0.2,0.2,0.3,0.7,1,0.6C324,103.2,323.8,103.3,323.5,103.3z M324.3,108c-0.6-0.1-0.1-0.9,0.2-0.4
		C324.5,107.7,324.3,107.7,324.3,108z M324.3,106.8c0.2-0.4,0.7,0.2,1.3,0C325.3,107.5,324.7,106.8,324.3,106.8z M325.6,101.4
		c-0.4-0.1-0.8-0.2-1-0.6C324.8,101.2,325.7,100.8,325.6,101.4z M326,80.2h0.6c0,0.2,0,0.2,0.2,0.2C326.6,80.7,325.8,80.6,326,80.2
		L326,80.2z M326.6,98.3v0.4c-0.3,0.1-0.4-0.1-0.6-0.2C326,98.4,326.2,98.3,326.6,98.3z M326.2,111.3c0.2,0.1,0.1,0.6,0.6,0.4
		C326.4,112,325.7,112.4,326.2,111.3z M326.2,79.2c-1,0.7,0.3-0.7,0.7,0.2C326.7,79.7,326.3,79.2,326.2,79.2z M327.4,107.6
		c0.1-0.2,0.2-0.4,0.4-0.6C328.2,107.2,327.8,107.9,327.4,107.6z M328.1,97.6c-0.4-0.2-0.4-0.5-0.2-0.8
		C328.1,96.8,328.3,97.4,328.1,97.6z M328,94c0.4-0.1,0.4,0.4,0.7,0.4C328.5,94.8,327.9,94.4,328,94z M328.7,100.4
		c0-0.3,0.5-0.1,0.7-0.2C329.4,100.9,328.9,100.7,328.7,100.4z M331.7,103.4c0.1-0.2,0.5-0.2,0.7-0.2c0,0.1-0.1,0.2-0.2,0.2
		c0.5,0.5,0.1,0.2,0.4,0.8h-0.4C332.3,103.6,331.8,103.6,331.7,103.4L331.7,103.4z M332.4,119.5c-0.2,0,0.1-0.9,0.4-0.8
		C332.7,119,332.6,119.3,332.4,119.5z M333.4,115.8c0-0.2,0.8-0.1,0.7,0.2C333.6,116.2,333.6,115.9,333.4,115.8z M333.4,106.2
		c-0.1-0.3,0-0.6,0.2-0.7c0.2,0,0.1,0.2,0.2,0.2c0,0.2-0.2,0.1-0.2,0.2c0.3,0.4,0.8,0.7,1,1.1C333.5,107.2,334.2,106.3,333.4,106.2
		L333.4,106.2z M334.9,114.5c0.5-0.2,0.2,0.5,0.7,0.4C335.4,115.3,334.9,114.9,334.9,114.5z M335.6,116.2c0-0.2-0.2-0.1-0.4-0.2
		c0.2-0.4,0.9-0.8,1-0.2c-0.7-0.2-0.3,0.6-0.6,0.7C335.4,116.6,335.4,116.2,335.6,116.2z M335.8,120.7c0.1,0.3,0.6,0.2,0.8,0.4
		C336.3,121.5,335.4,121,335.8,120.7z M336.6,115c0.5-0.7,0-0.7-0.6-1c0-0.4,0.9,0.5,0.8-0.2c0.7,0.2-0.2,1.1,0.8,1
		C337.8,115.4,336.9,115.1,336.6,115z M337.5,114.4c0.1-0.4,0.7-0.2,0.8-0.6C338.6,113.5,338,114.9,337.5,114.4z M343,126.8
		c0.3-0.7-0.1-2,1.1-0.8C344,126.4,343.8,126.9,343,126.8z M342.8,117.5c0.1-0.5,0.7-0.2,0.6,0.2
		C343.2,117.7,343.1,117.5,342.8,117.5z M346.7,125.9h0.7C347.4,126.6,346.7,126.6,346.7,125.9z M347.4,128.2
		c0.2-0.2,0.5-0.2,0.8-0.2C348.3,128.4,347.7,128.5,347.4,128.2z M349.2,120.3h0.7C350.1,120.8,349,120.9,349.2,120.3z M350.4,119.5
		c-0.2-0.1-0.6-0.1-0.7-0.2c0-0.4,0.3-0.4,0.7-0.4V119.5z M351.2,128.5c0.1-0.7,0.7,0.1,0.7-0.7c0.2,0.1,0.2,0.3,0.2,0.6
		C351.8,128.2,351.7,128.6,351.2,128.5L351.2,128.5z M351.7,125.1c-0.2-0.6,0.4-0.3,0.4-0.7c0.2,0.1,0.2,0.5,0.2,0.7H351.7z
		 M353.9,121.2c0.1-0.2,0.3-0.2,0.2-0.4c0.3,0,0.4,0.1,0.4,0.4H353.9z M356.4,122c0,0.1-0.1,0.2-0.2,0.2c0.1,0.2,0.3,0.2,0.2,0.4
		C356.1,123,355.5,121.9,356.4,122L356.4,122z M358.3,122.8c-0.2,0-0.2,0-0.2,0.2c-0.3,0-0.1-0.7,0-0.7
		C358.3,122.3,358.3,122.5,358.3,122.8z M358.6,122c0.1-0.3,1.2-1.3,1.3-0.2C359.2,121.2,359.4,122.2,358.6,122z M360.6,129.6
		c0.1-0.2,0.4-0.4,0.7-0.4c-0.1,0.6,0.3,0.1,0.6,0.2C361.7,130.4,361.1,129.1,360.6,129.6z M361.7,129.1c-0.3-0.1-0.7-0.1-0.7-0.6
		c0.5,0.3,0.7,0.2,1.3,0C362.3,128.9,361.9,128.9,361.7,129.1z M361.6,124.1c0.2-0.6,0.8,0.6,1.1,0c0.3,0.2-0.1,0.8-0.4,0.7
		C362.3,124.4,362,124.1,361.6,124.1z M363,130c-0.2,0-0.7,0.2-0.6-0.2c0.2-0.1,0.3-0.2,0.6-0.2V130z M364,120.6
		c0.4-0.1,0.6,0.2,0.8,0.2C364.7,121.1,363.9,120.9,364,120.6z M364.8,127.7c0.1-0.5,1.1-0.2,1,0.2
		C365.4,128.3,365.4,127.5,364.8,127.7z M365.6,123.8c0-0.5,0.2-0.7,0.7-0.7C366.1,123.5,366,123.8,365.6,123.8z M366,125.1
		c0.2-0.2,0.2-0.5,0.7-0.4C366.5,125,366.3,125.5,366,125.1z M367.7,127.7c-0.3,0.6-1.1,0.1-1.3-0.2c0.2-0.2,1.1,0.8,1.1-0.2
		C368,127.2,367.2,127.7,367.7,127.7z M367.7,125.9c0.1-0.4-0.2-0.3-0.2-0.7c0.4,0,0.4,0.3,0.8,0.2
		C368.4,125.7,368.2,125.9,367.7,125.9L367.7,125.9z M368.1,127.4c0.3,0,0.4,0.2,0.7,0.2C368.7,128,367.9,127.8,368.1,127.4z
		 M368.8,125c-0.1-0.4,0.2-0.5,0.6-0.4C369.4,125,369.2,125,368.8,125z M370.5,129.6c0-0.3,0.1-0.4,0.4-0.4c0-0.1-0.1-0.2-0.2-0.2
		c0-0.2,0.6,0.2,0.6,0.4C371.2,129.6,370.9,129.6,370.5,129.6z M371.6,128.8c0.1-0.2,0.2-0.4,0.2-0.7c0.4,0,0.6,0.1,0.6,0.4
		C371.8,128.4,372,129,371.6,128.8L371.6,128.8z M371.6,122.6c0.2-0.6,1.3-0.2,1.4,0.2C372.6,122.7,372.4,122.4,371.6,122.6z
		 M373.8,121.6c-0.3-0.1-0.5-0.5-0.4-1h0.4c-0.1,0.2-0.2,0.2-0.2,0.2C373.4,121.3,373.9,121.1,373.8,121.6z M374.1,123.4
		c0.1-0.4,0.9,0.4,0.7-0.4c0.2,0,0.4,0,0.4-0.2C375.7,123.2,374.5,123.9,374.1,123.4z M375.7,122.2c0.1-0.3,0.4-0.3,0.6-0.6
		C376.9,121.8,375.8,122.4,375.7,122.2z M385,119.5c-0.5,0.1-0.7-0.2-0.6-0.7c0.4,0,0.7,0,0.8-0.2
		C385.7,119.1,384.4,118.9,385,119.5z M383.5,116c0.2-0.3,0.7-0.7,1-0.4C384.2,115.9,383.9,116,383.5,116z M383.7,110.5
		c-1.2,1.5-4.4,3.9-6.5,5.4c-4.7,3.1-13.7,5.6-22,4.1c-4.4-0.7-8.3-3-11.7-4.7c-1.3-0.9-2.4-2.7-3.9-2.9c0.7-0.7-1-1.1-1.6-1.6
		c0-0.2,0.4-0.2,0.6,0c-0.1-0.4-0.6-1.1-1.4-0.7c0-0.3,0.1-0.4,0.4-0.4c-1.7-1.8-2.7-4.2-4.4-6h0.4c-0.7-0.5-0.3-2.1-1.6-2.1
		c0.7-0.9-0.4-1.7-0.4-2.9c-0.2,0.1-0.2,0.2-0.2,0.4c-0.7-3.9-2-9.4-1-14.8c0-0.2-0.2-0.1-0.4-0.2c0.1-0.2,0.4-0.3,0.6-0.6
		c2.1-12.5,9-20.2,19.5-24.4c0.4-0.1,0.2-0.2,0.2-0.6c0.3-0.1,0.2,0.2,0.4,0.2c5.1-1.9,13-2.5,18.5-0.6c0.3,0,0.5,0,0.6-0.2
		c1.4,1.1,3.4,1.5,5.3,2.4s3.4,2,4.8,3.1c0.4,0.1,0.3-0.2,0.7-0.2c0,0.2-0.4,0.2-0.2,0.6c0.2-0.2,0.9-0.2,0.2,0
		c1.1,0.7,1.9,2.5,3.1,2.5c0.1,1.2,1.7,2.1,2.3,3.4c0.2-0.1,0.3-0.2,0.6-0.2c0.1,0.2-0.1,0.2-0.2,0.2c0.4,0.7,0.6,1.6,1.4,1.8
		c0,0.9,0.7,1.8,1.1,2.9c0.5,1.1,0.9,2.7,1.8,3.3c-0.8,0.1,0.2,1.7,0.4,3c0.4,1.8,0.6,3.2,0.7,5.3c0,0.2,0.2,0.1,0.4,0.2
		c-0.4,1.1-0.3,3.9-0.4,5.5c-0.5,6.8-3.4,11.4-6.1,16.3C384.5,108.7,384.2,109.9,383.7,110.5L383.7,110.5z M389.3,109
		c-0.2,0.2-0.6,0.2-0.8,0.2C388.5,108.7,388.9,108.8,389.3,109z M388,107.6C387.1,108.2,387,107.1,388,107.6z M386.4,114.9v0.7
		c-0.2-0.2-0.5-0.2-0.4-0.7H386.4z M386.4,117h-0.8c0.2-0.2,0.7-0.3,1-0.4C386.5,116.8,386.4,116.8,386.4,117z M387.1,114.6
		c-0.7-0.2-0.6-0.8,0-1.1C387.1,114.2,387.1,113.8,387.1,114.6z M387.8,114.5c-0.4,0-0.2,0.2-0.6,0c0.2-0.2,0.2-0.4,0.6-0.4V114.5z
		 M387.7,109.5c0.1-0.2,0.3-0.1,0.6-0.2c0.1,0.1,0.1,0.4,0.2,0.4c-0.1,0.3-0.6,0-0.4-0.2C388,109.7,387.9,109.5,387.7,109.5z
		 M388.1,110.4c0.4,0.4,0.7-0.1,0.7-0.4c0.9,0.3-0.6,0.7,0,1C388.6,111.3,388.3,110.5,388.1,110.4z M389,115
		c0.1-0.3,0.5-0.4,0.6-0.7C390.2,114.5,389.3,114.9,389,115z M389.4,108.1c0.2,0.1,0.3,0.3,0.7,0.2
		C390,108.9,389.2,108.6,389.4,108.1z M390.3,117c-0.4,0.4-0.7-0.1-0.4-0.6c0.5,0.2,0.4-0.3,0.8-0.2
		C390.9,116.7,390,116.8,390.3,117z M390.3,116c-0.1-0.6,0.7-0.4,0.8-0.7C391.3,115.5,390.6,115.9,390.3,116z M391.7,114.8
		c-0.4,0-0.2-0.7-0.7-0.7C391.2,113.4,392.1,114.5,391.7,114.8z M391.4,109.7c-0.2-0.1-0.2,0.1-0.2,0.2c-0.6-0.9,0.4-0.1,1.1-0.2
		c-0.4,0.6,0.2,0.5,0.6,0.7c-0.1,0.2-0.2,0.3-0.2,0.6C392.3,110.4,391.5,110.4,391.4,109.7L391.4,109.7z M392.6,111.7
		c0.3,0,0.7,0,0.8,0.2c-0.3,0.2-0.7,0.3-1,0.4C392.6,112.1,392.6,111.9,392.6,111.7z M392.8,112.5c0.2-0.2,0.7-0.3,1.1-0.2
		c0,0.2,0.2,0.3,0.2,0.6C393.5,112.8,393.1,112.8,392.8,112.5z M395.8,110.8c0.1-0.2,0.2-0.5,0.2-0.8h0.4
		C396.4,110.4,396.3,110.8,395.8,110.8z M396.2,108.4c0-0.3,0.2-0.4,0.2-0.8C396.7,107.6,396.7,108.5,396.2,108.4z M396.7,109.7
		c-0.1-0.3,0.2-0.2,0.4-0.2c0-0.1-0.1-0.2-0.2-0.2C397.5,108.7,397.4,110,396.7,109.7z M399.9,100.4c0-0.3,0.3-0.3,0.7-0.2
		C400.5,100.4,400.2,100.8,399.9,100.4z M574.9,74.2c-0.2-0.3-0.7,0.7-1,0.2c0.1-0.6,0.7-0.5,0.8-1c-2.3-5.3-5.2-10-8.8-13.8
		c-1.2-1.2-2.5-2.7-4.1-3.4c-1.1-1.4-2.7-2.5-4.3-3.4c-4.9-3-10.4-4.8-17.2-6c-0.5-0.2-0.1,0.5-0.4,0.4c-1.6-0.8-5.2-0.7-7.6-0.6
		c-6.6,0.4-13,2.5-16.7,4.9c-12.3,6.1-21.6,18.5-22.4,35.9c-0.2,4.3,0.2,7.9,1.1,11.5c0.1,0.3,0.5-0.5,0.6,0.2
		c-0.3-0.1-0.5,0.1-0.4,0.4c0.3,1,0.6,2.5,1,3.3c0.2,0.3,0.8,0.3,0.2,0.7c1.2-0.1,1,0.6,1.4,1.1c-0.5,0-0.7-1.1-1.3-0.6
		c1,1.7,1.6,4.2,3,6c0.2,0.4,0.5-0.5,0.7,0c0.1,0.5-0.6,0.2-0.4,0.7c2.8,4.3,6.2,8.1,10.1,11.2c1.3,1,2.8,2.4,4.1,3
		c0.3,0.2,0.7,0,1,0.2c0.1,0-0.2,0.3,0,0.4c0.2,0.1,0.6-0.1,0.7,0c-0.1,0,0.1,0.4,0.2,0.4c1.7,1,4.2,1.8,6.1,2.7
		c0.4,0.1,0.7-0.7,1-0.2c0,0.2-0.5,0.1-0.4,0.4c6.9,2.5,17.9,2.9,25.5,0.4c0.3-0.2,0.5-0.3,0.6-0.7c0.4,0.2,0.3,0.6,0.8,0.2
		c0.2-0.2,0.7-0.2,0.8-0.6c14.2-5,25.6-17.3,27.5-34.5C578,87.8,577.4,79.8,574.9,74.2L574.9,74.2z M564.4,71c0.2,0.4-1.3,0.4-1.1,0
		C563.9,71.1,563.8,71.2,564.4,71z M560.1,64.6c0.2,0.3-0.2,0.6,0.4,0.7c0.4,0.2-0.5-0.2-0.7-0.2C559.9,64.8,560.2,65,560.1,64.6z
		 M553.3,55.4c-0.4-0.2-0.7-0.1-1.1,0C552.1,55,553.3,54.8,553.3,55.4z M551.8,54.1c0-0.2,0.2-0.1,0.4-0.2c0,0.4-0.2,0.6-0.7,0.6
		C551.4,54.2,552.3,54.2,551.8,54.1z M550.4,54.6c0,0.3-0.5,0.2-0.8,0.2C549.6,54.5,550,54.6,550.4,54.6z M504.3,103.9
		c0.4,0,0.7,0,0.7,0.4c-0.3,0.1-0.7,0.2-0.8,0.4C503.7,104.4,504.5,104.4,504.3,103.9z M504,101.6c0.2,0.2-0.3,0.7-0.7,0.7
		c-0.1-0.2-0.3-0.2-0.2-0.4C503.4,101.8,504,102,504,101.6z M503.1,102.9c0.3,0.2,0.7,0.2,0.8,0.4c-0.5,0.1-0.9,0.2-1.3,0.2
		C502.8,103.1,503.3,103.3,503.1,102.9z M502.7,85.2c0.6-0.2,0.3,0.4,0.7,0.4C503.4,85.7,502.6,85.6,502.7,85.2z M502.7,69.8
		c0.3,0.1,1-0.2,0.8,0.2C503.3,70,502.6,70.3,502.7,69.8z M503.1,100.4c-0.2,0.6-0.7-0.1-1-0.2C502.4,99.9,502.9,100.3,503.1,100.4z
		 M501.5,92.1c0.2,0.2,0.7,0.2,0.8,0.4c-0.2,0.5-1-0.1-1-0.6C501.4,91.9,501.5,92,501.5,92.1z M501.3,88.3c-0.2-0.1-0.5-0.2-0.8-0.2
		C500.6,87.4,501.2,87.9,501.3,88.3z M497.9,74.5c-0.3,0.1-0.3-0.2-0.7-0.2C497.2,73.9,498,74,497.9,74.5z M496.2,102.7
		c-0.3-0.4,0.7,0.3,0.8-0.2C497.4,103.1,496.5,102.8,496.2,102.7z M496.9,101.3c-0.2-0.5,0.6-0.2,0.8-0.2c-0.1,0.6,0.6,0.4,0.6,1
		C497.6,102,497.9,101,496.9,101.3z M497.9,102.7c0.5,0.5,0.7-0.2,1.3-0.2C499,102.9,497.9,103.5,497.9,102.7z M499,108.4
		c-0.2-0.1-0.4,0-0.4,0.2c-0.4-0.1,0.1-0.5,0-0.7C498.8,108.1,499.1,108,499,108.4L499,108.4z M498.4,103.5c0.3,0.2,0.9,0.1,1.3,0
		C499.4,104.2,498.6,104.1,498.4,103.5z M499.4,96.7c-0.4-0.1,0.1-0.5,0-0.7c0.2,0,0.2,0.2,0.4,0.2
		C499.8,96.5,499.6,96.6,499.4,96.7z M499.7,98.9c-0.1-0.4,0.5-0.3,0.7-0.4C500.5,98.9,500.2,98.9,499.7,98.9z M501.5,103.5
		c0-0.2-0.2-0.3-0.2-0.6c0.3,0.1,0.7,0.3,0.8-0.2C502.6,103.2,501.9,103.6,501.5,103.5z M501.9,104.9c0.2-0.3,0.6-0.3,0.4-1h0.8
		c0.4,0.4,0.5,1.1,1.3,1.1c-0.2,0.4-0.6,0.5-0.8,0.7C502.7,105.8,502.6,104.8,501.9,104.9L501.9,104.9z M503.4,106.5
		c0.2-0.5,0.7-0.4,1.1-0.2c-0.2,0.4-0.4-0.2-0.8,0c0.1,0.2,0.2,0.2,0.2,0.2C503.8,107.2,503.5,106.6,503.4,106.5z M504.4,107.1h0.7
		C505.3,107.6,504.2,107.6,504.4,107.1z M505.4,109.4c-0.2,0-0.2,0-0.2,0.2c-0.6-0.2,0-0.7-0.2-1h0.6L505.4,109.4L505.4,109.4z
		 M504.7,103.1c0-0.3,0.5-0.3,0.7-0.2C505.4,103.4,504.9,103.3,504.7,103.1z M506.8,101.4c-0.1,0.2-0.1,0.6-0.4,0.6
		c0-0.2,0.2-0.2,0.2-0.4c-0.2,0.1-0.6,0.1-0.7,0.2C505.4,101.4,506.4,101.1,506.8,101.4z M507.1,104.7c-0.2,0.1-0.3,0.2-0.2,0.2
		c0,0.2-0.4,0.2-0.4,0v-0.2c0.3,0.2,0.8-0.5,0.8,0.2C507.3,104.8,507.3,104.7,507.1,104.7z M508.5,108.5h-0.7c0.2-0.3,0.6-0.5,1-0.6
		C508.9,108.2,508.4,108.1,508.5,108.5z M509.7,110.2c-0.2-0.2-0.2-0.6-0.7-0.4c0.1-0.4-0.4-0.2-0.2-0.7
		C508.9,109.5,509.9,109.8,509.7,110.2z M515.9,115.4c0.5-0.4,0.9,0.3,1,0.7C516.5,115.9,516.5,115.4,515.9,115.4z M523.1,118.6
		c0.1-0.1,0.2-0.4,0-0.4c0.2-0.4,0.4,0.2,0.6,0.2C523.7,118.6,523.5,118.6,523.1,118.6z M527.6,124.3h0.7
		C528.4,124.8,527.4,124.8,527.6,124.3z M529.4,129.1c0.6-0.1,0.5,0.3,0.8,0.4C529.9,129.9,529.4,129.4,529.4,129.1z M530.9,129
		c-0.1-0.4,0.2-0.2,0.2-0.6c0.2,0.7,1.2,0.6,1.6,1.1C531.8,129.7,531.8,128.9,530.9,129z M532.1,125.4c0.4,0,0.7-0.1,0.6,0.4
		C532.2,125.9,532,125.8,532.1,125.4z M535,128.2c-0.2-0.2-0.7-0.1-0.6-0.6c0.3-0.1,0.3,0.2,0.7,0.2c-0.1-0.4-0.5-0.4-0.6-0.8
		c0.2,0.2,0.5,0.2,0.7,0.2C535.3,127.8,535,127.9,535,128.2z M538.3,127.3c0.6-0.2,0.3,0.4,0.7,0.4
		C538.9,128,538.2,127.8,538.3,127.3z M539.7,121c-0.4,0.2-0.8-0.4-1,0C538.4,120.7,539.7,120.4,539.7,121z M539.7,128.7
		c-0.3-0.2-0.4-0.3-0.8-0.2c-0.1-0.5,0.6-0.2,0.7-0.6C539.9,127.9,539.6,128.5,539.7,128.7z M539.3,126.3c0.3-0.4,0.9,0.2,1.4,0.2
		C540.5,127,539.7,126.4,539.3,126.3z M540.3,121.2c0.2-0.4,0.7-0.3,1,0C541.1,121.3,540.6,121.3,540.3,121.2z M542,124.3
		c0-0.7,0.2-0.2,0.7-0.2c0.1-0.4-0.2-0.4-0.2-0.8c0.3,0.1,0.5,0.3,0.4,0.8C542.7,124.1,542.5,124.4,542,124.3z M543,126.4
		c-0.2-0.2-0.1-0.7-0.4-0.7c0-0.2,0.2-0.1,0.2-0.2c0.3,0,0.3,1,0.7,0.4C543.9,126,543.4,126.5,543,126.4z M543.2,123.4
		c0.2-0.4,1-0.4,1,0.2C543.7,123.8,543.5,123.6,543.2,123.4z M544.9,126.3c-0.2-0.2,0.4-0.5,0-0.6c0.2-0.2,0.9-0.1,1.1-0.2
		C545.7,125.8,545.3,126,544.9,126.3z M546.1,129.2c0-0.2,0-0.2-0.2-0.2c0.1-0.3,0.7-0.1,0.8,0C546.7,129.1,546.4,129.2,546.1,129.2
		z M546.1,124.6c0.4-0.1,0.5,0.2,0.4,0.6C546.2,125.1,546.1,124.9,546.1,124.6z M544.3,124.4c0.3-0.7,1.6-0.5,2-1.1
		c0.3,0,0.1,0.5,0.2,0.7c1.1,0.2,1.1,0.4,2.1,0.6C547.5,125,545.6,123.5,544.3,124.4z M545.1,122.3c0,0.3-0.5,0.2-0.8,0.2
		C544.1,122.1,544.8,122.3,545.1,122.3z M545.5,121.7c0.2-0.3,0.7,0.1,1,0.2c-0.1,0.1-0.2,0.2-0.2,0.4
		C545.8,122.4,546,121.8,545.5,121.7z M547.3,123.2c0.2-0.4,0.9,0.7,0.2,0.7C547,123.6,547.9,123.5,547.3,123.2z M548.2,123.2
		c0.6-0.1,1,0.1,1,0.6C548.7,123.7,548.2,123.6,548.2,123.2z M549.8,125.9c-0.3-0.2-0.7-0.4-0.8-0.8
		C549.4,125,549.9,125.2,549.8,125.9z M548.4,126.1c-0.1-0.1-0.2-0.2-0.2-0.4c0.2-0.2,0.5-0.2,0.8-0.2
		C549.1,125.9,548.7,125.9,548.4,126.1z M549.6,127.5c-0.2-0.2-0.7,0-0.7-0.4c0.7,0.2,0.5-0.4,1.3-0.6
		C550,126.9,549.4,126.9,549.6,127.5L549.6,127.5z M563,109.1c0.1-0.1,0.2-0.2,0.2-0.4c0.3,0.1,0.2,0.4,0.6,0.4
		C563.7,109.5,563.1,109.2,563,109.1z M564.7,104.3c0.4-0.2,0.4-0.2,0.8,0C565.6,104.6,564.6,104.8,564.7,104.3z M564.4,100.6
		c-0.7,0.2-1.4,2.3-1.4,3.1c-0.9,0.7-1.4,1.7-1.7,3c-1.6,1.4-2.6,3.4-4.3,4.9c-4.8,4.8-12.2,8.8-21.6,8.8c-6.1,0-10.5-1.8-15-3.7
		c-0.6-0.7-1.2-1.2-2.4-1.3c0-0.2,0.2-0.2,0.2-0.4c-2-1.1-3.6-2.7-5.1-4.4c-0.3-0.3-0.2,0.2-0.7,0.2c-0.1-0.4,0.2-0.2,0.2-0.6
		c-0.2-0.1-0.4-0.2-0.7-0.2c0.2-0.7-0.7-1.5-1.3-1.8c-0.3-1-1.6-3-2.3-3.7c-0.1-0.5-0.5-1.6-1.1-2c-0.7,0.1,0,1-1.1,0.8
		c-0.3-0.8,0.7-1.1,1.1-1.7c-0.2-0.7-0.5-1-1.3-1c-0.1,0-0.2-0.1-0.2-0.2c0.2-0.8,0.2,0.5,0.7,0c-0.2-1.8-1.1-3.8-1.6-6.2
		c-0.3-2-0.1-4.3-0.7-6.1c0.5,0.2,0.2-0.6,0.4-0.7c-0.2-1.7,0.4-2.5,0.2-3.9c0.8-1.7,0.8-3.8,1.4-5.4c0.8-2.4,2.3-4.2,2.9-6.4
		c1-0.7,1.6-1.6,2.3-2.5c5.3-6.6,13.2-12.5,25.9-11.7c1.7,0.1,3.4,0.6,4.9,0.6c2.9,1.1,6.1,1.9,8.4,3.5c0.4-0.1,0.6-0.5,1.1-0.4
		c0,0.3-0.2,0.4-0.4,0.6c6.3,4.3,11.2,10,13.6,18.3c0,0.2,0.2,0.3,0.6,0.2c0.1,0.2-0.4,0.1-0.4,0.2c-0.2,0.7,1.4,6.7,1.1,9.1
		c0,0.2-0.2,0.5-0.2,0.7C565.9,94.6,565,97.6,564.4,100.6L564.4,100.6z M567,95.3c-0.3-0.1-0.2-0.4-0.6-0.4c-0.1,0-0.2,0.1-0.2,0.2
		C565.7,94.6,567.4,94.6,567,95.3z M569.9,73.5c0.1-0.3,0.7-0.3,1.4-0.4C571.1,73.4,570.4,73.3,569.9,73.5z M368.1,32.6
		c2.1,0,4.3,0.2,6.2,0.2c21-0.7,43.2,0.7,62.5-0.2c3,0.7,8,0.1,11.7,0.2c0.2,0,0.1-0.5,0.4-0.4c0.1,0.3-0.4,0.4,0.2,0.4
		c11.3-0.1,23.2,0.1,35.2,0c0.3-0.1-0.2-0.4,0.2-0.4c0,0.2,0,0.5,0.2,0.4c3-0.3,6.5,0.5,9.2-0.4c0.2,0.3,0,0.2-0.2,0.4
		c5.6,0,10.9,0.1,15-0.2c-0.2-0.2-1-0.2-0.6-0.4c0.7,0.6,2.9,1,3.3,0.2c0.3-0.1-0.1,0.7,0.4,0.4c3.9-0.1,6.3,0,10.5,0
		c6.1,0,14.3,0.2,19.5-0.2c0,0.3,0.2,0.2,0.4,0.2c2.9,0.3,6.2,0,9.4,0H580c15.3,0,31.7,0.5,44.4-0.7c0.2,0,0.1-0.4,0.2-0.4
		c2,0.5,4.4-1.1,6.4-1.6c0.4-0.3-0.4-0.2,0-0.4c0.2,0,0.3,0.2,0.6,0.2c5.5-3,10.3-6.6,12.5-12.9c0.5,0.1,0.3-0.4,0.6-0.4
		c2.2-5.5,2.8-15.6-5.4-14.4c-0.9,0.2-1.4,0.6-2.3,1c-0.2,0.3-0.3,0.2-0.2,0.7c-1.2-0.3-1.1,1.6-1.8,2c-0.1,0.7-0.2,1,0.2,1.4
		c-0.9,0.7,0,1.5-0.6,2.4c-0.2,0.6,0.4,0.3,0.4,0.7c-0.1,0.2-0.7,0-0.6,0.4c-0.3,1.6-1,3-1.6,4.3c0.2,0.2,0.4,0.5,0.4,0.8
		c-0.4-0.1-0.4,0.2-0.8,0.2c-0.2-0.2,0.4-0.5,0-0.6c-0.1,0.7-1.2,0.9-0.6,1.6c-0.2,0.2-0.9-0.1-0.8,0.4c0.7,0.7,1.6-0.2,2.1,0.2
		c-0.6,0.9-1.7,0.3-2.7,0.2c-0.7,0.5-0.5,0.7-0.4,1.3c-0.2-0.1-0.4-0.2-0.7-0.2c-0.2,0.5,0.7,0.7,0.4,0.8c-1-0.5-1.5-0.2-2.3,0.2
		c0.6,0.2,1.1-0.1,1.4,0.6c-0.2,0.2-0.4,0.7-1,0.7c-0.1-0.3,0.2-1-0.2-0.8c-0.5,0.3,0.4,1.1-0.2,1.3c-0.3-1.2-1.7,0.1-2.1-0.8
		c-0.3,0.4-1.2,0.2-1.4,0.7c0.6,0.3,0.9,0.2,1.3-0.2c0.7,0.2,0.6,1.5,1.4,1.1c-0.8,1-1.9-0.7-3-0.7c-0.6,0.5,0.2,0.7,0,1.4
		c-0.6-0.2-1-0.5-1,0.2c-0.4-0.6-2.1,0.1-2.3-0.7c0.9-0.6,2.2,0.6,2.9-0.6c-0.7-0.5-1.3,0-2,0c-9,0.5-19.7-0.3-30,0.2
		c-3.2,0.2-7.6-0.3-9.8,0.2c-4.1-0.5-10.3-0.2-16.2-0.2h-7.6c-3,0-7-0.3-8.5,0.4c0-0.2,0-0.5-0.2-0.4h-25.5c-0.4,0-0.3,0.4-0.7,0.4
		c-0.6-0.4-2.2-0.7-2.1,0c-1.1-0.5-1.8,0.1-2.7-0.4c-0.5,0.6,0.7,0.3,0.7,0.8c-0.6-0.2-0.9,0.4-1.3,0.2c0-0.4,0.3-0.4,0.2-0.8
		c-0.3,0.1-1.1-0.2-1.1,0.2c0.5,0.5,0.7,1.1,1.4,2c-0.4-0.1-0.2,0.2-0.6,0.2c-0.7-0.6-0.7-1.2-1.3-1.7c0,0.2-0.4,0.7-0.6,0.2
		c0-0.2,0.3-0.1,0.2-0.4c-0.7,0.2-0.7-0.5-1.4-0.2c0.1,0.8,1.1,1.6,1.8,1c0.2,0.7,0.6,1.1,0.7,1.8c-0.9-0.2-0.4-0.8-1.1-1.1
		c-0.7,0-0.1,0.6-0.7,0.7c-0.6-1.2-3.4-0.6-3.1-2.4h0.7c0.1,0.4-0.4,0.4-0.4,0.7c0.5-0.1,0.8-0.2,1-0.6c0.2,0.4-0.7,0.9,0,1
		c0.7-0.1,0.3-0.8,0.2-1.3c-1.3-1-2.5,0.9-3.5,0.2c0.1-0.5,0.4,0,0.4-0.2c-0.9-0.1-1.8,0-2.5,0.2c1,0.7,1.5,0.2,2.5,1
		c-0.2,0.5-0.6,1-1.3,1c0.4,0.2,0.2,0.7,0.2,1c1.4,0.3,2.6,0.3,3,1.8c-0.4-0.1-0.5,0.2-1,0.2c-0.6-0.3,0.7-0.9-0.2-1
		c-0.3,0.2-0.2,0.9-0.8,0.8c0.1-0.5-0.2-0.6-0.2-1c-1.1-0.2-0.9-0.9-1.6-1.4c0.3-0.4,0.7-0.8,1-1.1c0-0.6-0.7-0.4-1.1-0.6
		c0.1,0.6-0.3,0.7-0.6,1c0.3,0,0.7,0.7,0.4,0.8c-1.2-0.2-0.8-1.5-0.7-2.3c-1-0.2-1.8-0.3-3.1-0.6c-0.4,0.2,0.5,0.6,0,0.8
		c-0.1-0.4-0.3-0.7-0.7-0.8c-7.1,0.3-13.5-0.4-21,0.2c-1.1-0.6-3.1,0.1-4.8-0.2c-0.5-0.2-0.2,0.5-0.6,0.4c-0.3,0-0.2-0.6-0.7-0.4
		c-2.5,0.2-5.3-0.6-7.4,0.2c-13.6-0.5-32.2-0.4-43.1,0c-1.9-0.6-5.5-0.1-7.2-0.2c0.1,0,0.2,0.1,0,0.2c-0.1-0.1-1.3-0.6-1.1,0
		c0.2-0.3,0,0.1,0,0.2c-0.4,0-0.2-0.6-0.7-0.6c-1.2,0.2-2.5,0.3-3.7,0.2c-13.2-0.2-29.5,0.3-43-0.2c-11.8-0.6-24.8,0-37.8,0
		c-12.5,0-26.8-0.4-38.6,0.2c-14.2,0.7-29.8-0.4-43-0.2c-0.4-0.1-0.1,0.6-0.6,0.4c-0.1-0.3,0.4-0.4-0.2-0.4h-18
		c-5,0-10.2-0.6-14.4,0c-2.3,0.3-8.3,0.2-9.8,0c-3.4-0.4-6.9,0.3-10.3,0.2c-11.6-0.6-23.9,0.1-35.8,0c-0.2,0.2-0.3,0.5-0.7,0.4
		c-0.4,0-0.2-0.3-0.6-0.6c-1.1,0-2.1,0.2-3.4,0c-0.1,0.4,0.1,0.6,0.2,0.7c-0.2-0.1-1.1-0.3-1.3,0c0.2,0.2,0.8-0.2,0.8,0.4
		c-0.4-0.2-1.1-0.1-1.1-0.6c-0.1,0.7-1.2-0.6-1.4,0.7c0.9,0.3,1.4-0.3,2,0.2c-0.8-0.2-0.9,0.5-1.7,0.4c-0.4-0.7-0.9-0.7-1.4-0.6
		c0.4-0.4-0.5-0.6,0.2-0.8c-0.5,0.3-2.1,0.1-3,0.2c0-0.2,0.6-0.4,0-0.4c-0.9,0.2-2.7-0.6-3.9,0.2c-1-0.3-1.3-0.3-2.3-0.2
		c-17.4,0.6-38.9-0.2-55.5,0l-0.4,0.4c-2.3-1-5.9,0-8.4-0.4c-0.5-0.2-0.2,0.5-0.6,0.4c-1.6-0.7-6.9-0.6-9.7-0.4
		c-11.4,0.5-24.3-0.8-35.9,0.2c-12.3,0.9-21.3-3.9-21.9-14.2c0-0.4,0.1-0.7,0-1.1c-1-6.3-10.4-6.4-11.3-0.2C-0.9,14.1,3,19.3,6,23.1
		c5.5,7,16,10.8,29.1,9.7c5.6-0.5,12.6,0.6,17.9-0.2c8,0.7,17,0.2,25.1,0.2c25.4,0,53,0.5,78.1-0.2c1.2,0.7,3.4,0.2,5.3,0.2
		c24.5,0,53.3,0.3,77.3,0.2c0.4,0.1,0.1-0.6,0.6-0.4c-0.1,0.2-0.3,0.5,0.2,0.4c4.3-0.1,8.9,0.2,12.9-0.2c-0.2-0.2-0.6-0.2-0.8-0.4
		c0.2,0,2.2,0.2,1.6,0.6c1.6-0.2,3.3,0.2,4.3-0.2c0.5-0.5-0.7-0.6-0.7-1c0.2-0.2,0.6,0,1.1-0.2c-0.2,1.2,1.6,0.5,2,1.4
		c1.1,0.1,2.1,0,2.5-0.4c-0.4-0.7-0.6-0.9-1-1.6c0.8,0.1,1.4,0.6,2.1,0.6c0.2,0.7-0.5,0.8-0.2,1.3c1.3,0.6,2.4-0.2,3-0.8
		c-0.2,0.8,0.8,1.2,1.4,0.8c-0.2,0-0.5,0-0.4-0.2c1.2-0.2,0.7,0.5,1.6,0.4c0.5-0.6-0.7-0.2-0.2-0.8c0.7,0.3,0.8,0.6,1.6,0.8
		c0.7-0.2,1-1.6,2-0.7c-0.6-0.2-0.9,0-0.7,0.6c1.6,0.3,3.9,0.1,5.7,0.2c0.2,0,0.1-0.4,0.2-0.4c0,0.2,0,0.5,0.2,0.4h11.2v17.6
		c0,0.2,0.4,0.1,0.4,0.2c-0.6,0.1-0.7,1.7,0,2c-0.4-0.1-0.5,0.2-0.4,0.6c0,0.2,0.6-0.2,0.6,0.2c-0.7,0.8,0,1.7-0.2,2.3
		c0.1,0.2,1-0.2,1,0.4c-0.2,0.5-0.5,0-1.1,0.2c0.1,0.6-0.5,0.5-0.2,1.1c0.5,0.1,0.6-0.7,1-0.2c0.1,0.4-0.5,0.2-0.6,0.4
		c0.2,0.2,0.6,0.2,0.7,0.4c-0.5,0.3-0.3-0.3-1,0c-0.1,0.8,1.4,0.1,1.3,0.8c-0.6-0.2-0.3,0.3-0.6,0.4c-0.5,0-0.2-0.7-0.8-0.6
		c-0.1,0.9,0.7,1,1,1.4c-0.5,0.1-0.9,0.1-1,0.6c-0.1,0.5,0.7,0.2,0.4,0.8c-0.2,0-0.3-0.1-0.4-0.2c-0.2,0.8,1.2,0.4,1.4,0.6
		c0.1,1-0.4,1.4-1.1,1.6c0.8-0.2,0.4-1.4-0.2-1c0.6,0.3-0.5,1.4,0.4,1.8c-0.6,0-0.4,0.7-0.4,1.3c0.2,0.4,1,0.1,1,0.7
		c-0.3,0.1-0.5,0.2-1,0.2c0.2,0.9-0.2,1.6,0.2,2.4c0.6-0.2,1.4-0.2,2,0.2c-0.2,0.2-0.8,0.1-1.3,0.2c0.4,1.1-0.7,0.4-0.8,1.1
		c0.7,0.1,2.6,0.1,2.5,1c-0.4-0.2-0.8-0.6-1.4-0.6c-0.5,0.2-0.4,0.8-1.1,0.7c0.1,1.6,0.4,3.3,0,4.7c0.3,0.2,0.2,0.9,0.7,1
		c-0.2,0.2-0.8,0.1-0.7,0.7c0.2,0.5,0.6-0.6,0.7,0.2c-0.3,0.2-0.8,0.2-0.7,0.8c0.6,0.1,0.6,0.7,1,1c-0.3,0.1-1.1-0.3-0.7,0
		c0.2,0,0.1,0.2,0,0.2c0.1,0.4,0.7,0.3,1,0.6c-0.7,0-1.2,0-1.3,0.6c0.7-0.1-0.2,0.9,0,1.7c0.5-0.2,0.6,0,0.7,0.4
		c0,0.5-0.7,0.2-0.6,0.8c0.2,0.6-0.4,1.8,0.2,2.9c0.7,0,0.7-0.2,1.1,0.2c-0.3,0.2-0.6,0.7-1.3,0.6c0.1-0.3,0.2-0.6-0.2-0.7
		c0,1.5,0.2,1.5,0,2.9c0.5,0.2,0.7-0.7,1-0.2c-0.5,0.2-0.1,0.2-0.2,0.7c-0.4,0.1-0.4-0.5-0.7-0.2c-0.3,2.1,0.1,4.6-0.2,6.2
		c0.5-0.2,0.8,0.3,1.4,0.4c-0.7,0.3-1-0.3-1.1,0.2c-0.8,0.7,0.2,2.7-0.2,3.1c0.7,0.1,1.1,0.3,1.3,0.2c0,0.7-1.6-0.2-1.3,0.8
		c0.2,0.6,0.4-0.5,0.4,0c0.4,0.8-0.3,0.2-0.4,0.7c0.1,0.5,0.7-0.4,0.7,0.2c0,0.3-0.7,0-0.7,0.2c0,0.8,0.1,1.6,0.2,2.1
		c0-0.2,0.5-0.5,0.6-0.2c-0.1,0.2-0.2,0.2,0,0.4c-0.3,0.2-0.3,0-0.7,0.2v1.1c-0.1,0.4,0.4-0.3,0.4,0.2c-0.2,0.4-0.6,0.8-0.4,1.6
		c0.1,0.5,0.4-0.5,0.4,0c-0.1,0.4-0.7,0.2-0.4,1c0.7,0.3,0.2-0.7,0.7-0.6c-0.1,0.7,0.4,1-0.2,1.8c0.3,0.1,0.7-0.4,0.8-0.2
		c-0.4,0.4-0.7,1.1-1.3,0.8c-0.1,1,0.2,1.9,0,2.5c-0.1,0.3,0.7-0.3,0.8,0.2c-0.1,0.7-0.7,0-0.8,0.7c0.3,0.5,0.7-0.5,0.8,0.2
		c-0.1,0.7-0.7,0.2-0.8,0.7c0.5,0.3,0.1,0.9,0,1.7c0.2,0,0.5-0.1,0.6,0.2c-1,0.2-0.2,1.3-0.6,1.8c0.4,0.1,0.5-0.2,1-0.2
		c-0.2,0.5,0.3,0.4,0.2,0.8c-0.7,0.2-0.5-0.2-1.3,0c0.2,0.7-0.2,0.6-0.2,0.8c-2.1,0.6-5.9-1.1-7,1c0.1-0.1,0.2-0.2,0.4-0.2
		c-0.2,0.2-0.5,0.2-0.6,0.6c0.4,2.8-0.4,5.9,0.4,8.1c1.7,0.2,3.7,0.2,5.8,0.2c0.6,0.1,1.1,0.1,1.7,0h0.9c0.1,0,0.1,0.1,0.2,0.1
		c1-0.1,2.1-0.2,3.3-0.2c1.6,0,3.2,0,4.6,0.2l-0.1-0.1c3,0.1,6.2,0.1,8.7-0.2c0.8-2.3,0-5.6,0.4-8.5c-0.1-0.3-0.4-0.3-0.6-0.6
		c0.2,0,0.3,0.1,0.4,0.2c-1.1-2.4-5.3-0.2-7.2-1.1c-0.1-6.1,0-12.2,0-18.5c-0.3,0.2-0.8,0.8-1.3,0.2c0.2-0.3,0.8-0.4,1.3-0.6
		c0-0.7-0.2-0.8,0-1.4c-0.4-0.1-0.7,0.4-0.8-0.2c0.3,0,0.7,0,0.8-0.2c-0.3-2.3,0.4-5.4-0.2-8c-0.9,0.2-0.2,0.7-0.2,0.8
		c-0.9-0.1-0.5-0.6-0.6-1c-0.6-0.3-0.6,0.7-0.8,0.2c-0.1-0.7,0.9-0.4,1.3-0.7c0.1,0.3-0.4,0.4,0.2,0.4c1-0.7,0.6-2.2,0.6-3.3V60.6
		c0.1-0.2-0.2-0.2-0.2-0.4c0.4-0.8,0.5-3.3,0-4.4c0.6-0.2,0.3-2.2,0-2c0.7-1,0.4-3.9-0.2-4.9c0.3-0.1,0.4,0.4,0.4-0.2
		c0.2-5.1-0.2-10.8,0.2-15.9C322.9,32.8,346.1,32.8,368.1,32.6L368.1,32.6z M627.3,27.1c0.3-0.7,0.6,0.3,1.1,0.2
		C628.1,28,627.7,27.1,627.3,27.1z M630.4,27.1c-0.5-0.2-0.6-0.6-1.3-0.2c0.7-0.7,1.6-0.2,2.7-0.4C631.8,27.6,630.6,26.1,630.4,27.1
		z M629.3,24.3c0-0.3,0.5-0.2,0.6-0.4c0.7,0.2,0.7,0.9,0.6,1.6c-0.3-0.4-0.6-0.1-0.8-0.2c0.1-0.2,0.3-0.1,0.6-0.2v-0.4
		C630,24.3,629.3,24.6,629.3,24.3L629.3,24.3z M631.4,23.9c0.5-0.1,0.6,0.3,1,0.2C632.4,24.3,631.3,24.3,631.4,23.9z M631.6,23.1
		c0-0.2,0.2-0.2,0.2-0.4c0-0.2-0.2-0.1-0.4-0.2c0.3-0.7,0.7,0.2,1,0.4C632.4,23.3,631.9,23,631.6,23.1z M634.1,16.1h0.4
		c-0.2,0.2-0.2,0.5-0.2,0.7C633.9,16.8,634.2,16.2,634.1,16.1z M632.5,16.5c0.4,0,0.9-0.1,0.8,0.4C633,16.8,632.5,16.9,632.5,16.5z
		 M633.8,22.3c0,0.3-0.6,0.2-0.6,0.6c-0.4-0.3-1.1-1.1,0-1.1C633,22.5,633,22.5,633.8,22.3z M631.6,18.8c0.3,0.1,1.3-0.1,1.6,0.4
		c-0.2,0.3-1.7-0.5-1.6,0.6C630.8,19.6,632,19.1,631.6,18.8z M631.4,23c-0.3,0.2-0.8,0.2-1.1,0.4c-0.1-0.5-0.8-0.3-0.7-1
		C630.2,22.9,630.8,22.5,631.4,23L631.4,23z M630.2,20.9c-0.1,0.3,0.2,0.3,0.2,0.7c-0.2,0.2-0.8,0.2-1.1,0.2
		c0.1-0.2,0.3-0.5-0.2-0.4C629.3,21.1,629.6,20.8,630.2,20.9z M628.8,23.7c-0.1,0.4-0.4,0.2-0.7,0.2
		C628.1,23.5,628.6,23.5,628.8,23.7z M627.5,24.1c0.7,0.2,0.9,1,1.6,1.3c-0.2,0.3-0.6-0.2-1,0v-0.6c-0.5,0.2,0,0.3-0.2,0.6
		c-0.4-0.1-0.4-0.5-1-0.2C627,24.8,627.3,24.4,627.5,24.1z M626.5,25.1c-0.3,0.4-1,0-1.1-0.2C625.9,24.3,626.1,25.2,626.5,25.1z
		 M625,28c0.3,0,0.1,0.6,0.2,0.8C624.6,28.6,624.8,28.4,625,28z M623.3,23.9c0.2,0.2,0.4,0.6,0.7,0.8c0,0.3-0.3,0.3-0.7,0.2
		C623.5,24.5,623.3,24.3,623.3,23.9z M624.2,26.4c-0.6,0-0.7-0.4-1.1-0.6C623.4,25.4,624.2,25.9,624.2,26.4z M622.9,27.7v0.4h-0.6
		c0.1-0.1,0.2-0.2,0.2-0.4H622.9z M622.7,25.4c-0.4,0.1-0.4-0.2-0.7-0.2C622.1,24.8,622.9,25,622.7,25.4z M511.6,31.2
		c0.5,0.1,0.6,0.5,0.7,0.8C512.1,31.9,511.8,31.6,511.6,31.2z M513,31.1c-0.2,0-0.3-0.2-0.6-0.2c0.2-0.5,0.2-0.6,0.2-1
		C513,30.2,513.1,30.6,513,31.1z M512.1,27c0.5,0,0.7,0.2,0.7,0.7C512.3,27.7,512.2,27.3,512.1,27z M513.8,31.5
		c0.1-0.7-0.2-0.7,0-1.1c0.3-0.1,0.6,0,0.7,0.2c0.2,0.5-0.5,0.2-0.4,0.6c0.2,0.4,0.4-0.2,0.6,0.2C514.4,31.6,514.2,31.3,513.8,31.5
		L513.8,31.5z M518.5,27.1c-0.2-0.1-0.1-0.3-0.2-0.6c0.4-0.1,0.4,0.2,0.8,0.2C519.1,27,518.4,26.6,518.5,27.1z M522,23.4
		c-0.2,0.5-1.1-0.2-1.3-0.6C521.2,22.9,521.7,23.2,522,23.4z M520.8,26.1c-0.3-0.2-0.5-0.5-0.8-0.6
		C520.1,25.2,520.8,25.7,520.8,26.1z M520,22.7c0,0.2,0,0.2,0.2,0.2c-0.2,0.6-0.7,0-1.1,0.2C519.1,22.8,519.4,22.6,520,22.7z
		 M519.2,23.9c0,0.2,0.2,0.3,0.2,0.6c-0.4,0.1-0.4-0.4-0.7-0.4C518.6,23.8,519,23.9,519.2,23.9z M518,25c0.2-0.1,0.2,0.1,0.2,0.2
		c0.1-0.1,0.2-0.2,0.4-0.2c-0.1,0.3-0.6,0.3-0.4,0.8c-0.3-0.1-0.6-0.2-0.8-0.2C517.5,25.3,518.1,25.5,518,25z M517.6,26.6
		c-0.4-0.1-0.7-0.3-0.7-0.7C517.3,26.1,517.6,26.2,517.6,26.6z M516.5,26.1c-0.3-0.2-0.8-0.2-0.8-0.6
		C516.2,25.5,516.5,25.7,516.5,26.1z M514.9,25.1c0.2,0.9,1.1,1.6,2.1,2c0.1,0.4-0.3,0.5-0.7,0.4c-0.2-0.7-0.6-0.8-1.1-0.8
		C515.3,25.8,514.2,25.7,514.9,25.1L514.9,25.1z M515.9,28.7c-0.5-0.5-1-0.9-2-0.6C514.4,27.2,515.8,27.5,515.9,28.7z M511.2,25.4
		c-0.2-0.5-1.1-0.8-0.7-1.4c0.3-0.1,0.2,0.4,0.4,0.4c0.4,0.1,0.2-0.5,0.4-0.6c0.1-0.6-0.9-0.7-0.2-1c0.6,0.2,0.2,1.2,1,1.3
		c0,0.2-0.2,0.1-0.4,0.2c0.2,0.7,0.7,0.2,1.4,0.2c0.1,0.9,0.8,1.1,0.8,2c-0.3,0-0.4-0.2-0.6-0.4c-0.4,0-0.4,0.9,0,0.8
		c-0.4,0.4-0.7-0.7-1-0.8c0.7-0.6-0.4-1.1-0.8-1.3C511.2,24.8,511.6,25.5,511.2,25.4z M511.5,25.7c0.3-0.3,0.5,0,0.7,0.2
		C512.2,26.2,511.4,26.2,511.5,25.7z M511.4,27.8c0-0.2,0.6,0.2,1,0c0.2,0.2,0.2,0.8,0,1c-0.5,0.1-0.4-0.6-1-0.4
		C511.4,28.3,511.7,27.9,511.4,27.8z M512.2,30.8c-0.2-0.3-0.5-0.7-1.1-0.6c0.1-0.6-0.2-0.8-0.2-1.3
		C511.5,29.4,512.2,29.8,512.2,30.8L512.2,30.8z M510.7,30.3c0.1,0.7-0.2,1-0.4,1.4c-0.3-0.2-0.6-0.4-0.7-0.7c0.3,0.1,0.6,0.2,0.8,0
		c0-0.4-0.3-0.5-0.6-0.7C509.8,30.1,510.6,30.3,510.7,30.3L510.7,30.3z M509.8,29.7c-0.4,0-0.6-0.1-0.6-0.4
		C509.5,28.9,509.8,29.3,509.8,29.7z M503.7,31.4c-0.2-0.6,0.4-0.3,0.4-0.7C504.4,30.7,504.1,31.5,503.7,31.4z M504.6,28.9
		c-0.4-0.2-0.7-0.6-0.7-1.1C504.5,27.7,504.6,28.3,504.6,28.9z M504.6,27.4c0.2-0.3,0.7-0.2,0.6-0.8c0.2-0.3,0.2,0.7,0.2,0.8
		C505.2,27.6,504.9,27.5,504.6,27.4z M507.1,29.3c-0.4,0.4-0.7-0.5-0.7-0.8h0.4C507.1,28.6,506.8,29.3,507.1,29.3z M506.7,31.2
		c0.7,0.1,0,0.8,0.6,0.8C506.9,32.6,506.6,31.7,506.7,31.2z M508.9,31.2c-0.2-0.2-0.2-0.7-0.7-0.6c-0.1-0.4,0.4-0.2,0.2-0.7
		c-0.4-0.1-0.2,0.3-0.4,0.4c-0.2-0.3-0.6-0.6-0.7-1c0.6,0.1,0.7-0.2,1.3-0.2C508.6,30.1,509,30.4,508.9,31.2L508.9,31.2z
		 M505.2,23.5v0.4c-0.5,0-0.7-0.2-0.7-0.6C504.9,23.6,504.8,23.7,505.2,23.5z M505.2,24.4c-0.7,0.4,0.7,1.1,1.1,0.7
		c0.1-0.6-0.7-0.4-0.7-0.8c0-0.5,0.4-0.7,1-0.6c-0.2,0.5-0.2,0.9,0.4,0.6c0.2,0.7,0.4,1.7,1.3,1.3c0.1,0.2,0.2,0.5,0.2,0.8
		c-0.1,0.1-0.2,0.2-0.4,0.2c0,0.4,0.2,0.7,0.7,0.7c-0.2,0.2-0.5,0.2-0.8,0.2c-0.1-1.1-0.9-1.3-1-2.3h-0.6c-0.2,0.2-0.2,0.9-0.4,1.1
		c-0.4-0.1-0.2-0.7-0.6-0.8c-0.2,0.1-0.2,0.2-0.2,0.4c-0.3-0.9-1.3-1-1.6-2C504.4,23.9,504.3,24.6,505.2,24.4L505.2,24.4z
		 M503.6,26.6c0.4-0.1,0.5,0.2,0.4,0.6C503.6,27.3,503.5,27.1,503.6,26.6z M502.5,29.1v0.4c-0.3,0.1-0.4-0.1-0.6-0.2
		C502,29.1,502.3,29,502.5,29.1z M500.7,26.6c0.1,0,0.2,0.2,0.2,0.2V27c-0.3,0.1-0.6,0-0.7-0.2C500.3,26.6,500.7,26.8,500.7,26.6
		L500.7,26.6z M499.7,28.1c-0.2,0.4-0.5-0.2-0.7-0.2C499.3,27.3,499.5,28,499.7,28.1z M496.6,29.1c0.1,0.3-1,0.5-0.8,0
		C496.1,28.8,496.3,29,496.6,29.1z M479.7,25c0.4,0.2,0.2,0.7-0.2,0.7C479.3,25.2,479.7,25.2,479.7,25z M472.1,23.5
		c0,0.2,0,0.2-0.2,0.2c0.1,0.2,0.3,0.1,0.6,0.2c-0.2,0.6-0.8,0-0.8-0.4H472.1z M471.7,25c-0.3,0.7-1.1-0.1-1.3-0.4
		C470.9,24.1,471.1,25.1,471.7,25z M468,22.5c0.3,0.2,0.7,0.2,0.8,0.4c-0.2,0.4-0.6-0.2-1,0C467.9,22.7,468,22.6,468,22.5z
		 M430.4,25.2c0.1,0,0.2-0.1,0.2-0.2C430.9,25.2,430.6,25.2,430.4,25.2c-0.1,0.4,0.4,0.2,0.2,0.7c-0.3,0-0.4-0.2-0.8-0.2
		c0.1-0.2,0-0.4-0.2-0.4C429.7,25.3,430.1,25.4,430.4,25.2z M423.7,24.3C425.1,23.6,425.1,24.3,423.7,24.3z M417.5,24.6
		c-0.2,0.2-0.6,0.1-1.1,0C416.4,24.3,417.3,24.4,417.5,24.6z M9,20.4c-0.5,0.1-0.6-0.2-0.8-0.2C8.3,19.7,9.1,19.7,9,20.4z
		 M21.8,24.6c-0.3-0.1-0.7-0.1-0.6-0.6C21.8,23.9,21.9,24.1,21.8,24.6z M48.7,23.1c0.2-0.2,0.5-0.2,0.8-0.2
		C49.6,23.3,48.7,23.8,48.7,23.1z M49.8,26.6c-0.3,0.1-0.2-0.4-0.4-0.4c-0.1-0.1,0.5-0.2,0.8-0.4C50.2,26.2,49.8,26.2,49.8,26.6z
		 M85.3,24c0.3-0.2,0.5,0.1,0.2-0.6c0.4,0,0.3,0.5,0.4,0.8C85.5,24.4,85.5,24,85.3,24z M87.4,25.4c0.2,0.1,0.4,0.2,0.7,0.2
		C88.2,26.2,87.4,25.8,87.4,25.4z M93.7,23c0.1-0.5,0.5-0.2,0.7,0C94.3,23.4,93.7,23.1,93.7,23z M151.4,23.4
		c0.1-0.4-0.6-0.1-0.4-0.6c0.3,0.1,0.6,0.2,0.8,0.2c0.1,0.4-0.2,0.5-0.6,0.4c0.2,0.1,0,0.7,0.2,0.7c-0.1,0.2-0.2,0-0.2-0.2
		c-0.4-0.1-0.3,0.2-0.7,0.2C151,23.9,150.5,23.4,151.4,23.4L151.4,23.4z M147.6,25h-0.7c0-0.4,0.4-0.3,0.6-0.6
		C147.8,24.5,147.6,24.6,147.6,25z M148.6,24.3c-0.4,0.1-0.2-0.4-0.7-0.2c0.1-0.2,0.2-0.2,0-0.2c0.2-0.1,0.7,0.1,1.3,0.2
		C149.1,24.3,148.6,24.1,148.6,24.3L148.6,24.3z M149.6,23.5c0-0.6,0.9-0.6,0.7,0.2C150,23.4,150,23.4,149.6,23.5z M151.1,27.4
		c0,0.2-0.2,0.1-0.2,0c-0.3-0.1-0.3,0.2-0.7,0.2c0-0.1,0.1-0.2,0.2-0.2c0-0.1-0.1-0.2-0.2-0.2c0-0.2,0.2-0.1,0.2,0
		c0.3-0.1,0.3-0.6,0.8-0.4C151.3,27.1,150.8,27.4,151.1,27.4z M151.4,25.1c0.2,0.2,0.7,0.3,0.7,0.7
		C151.4,25.8,150.9,25.7,151.4,25.1z M152.5,25.8c0,0.1,0.1,0.2,0.2,0.2c-0.4,0.5-0.3-0.5-0.4-0.4c0-0.3,0.2,0.2,0.6,0
		C152.8,25.8,152.7,25.8,152.5,25.8z M154.4,25.4c0.5-0.6-0.3-0.2-0.2-1c0.3,0.1,0.3,0.6,0.8,0.4C154.9,25.1,154.7,25.3,154.4,25.4z
		 M156,26.1c-0.1,0.4-0.2-0.2-0.4-0.2c0-0.3,0.3-0.3,0.7-0.2c0,0.2,0,0.2,0.2,0.2C156.4,26.3,155.6,25.5,156,26.1L156,26.1z
		 M156,24.7c0.1-0.2,0.6,0.1,0.8-0.2c0,0.4,0.2,0.6,0.6,0.7C156.9,25.6,156.5,24.6,156,24.7z M162.6,26.4c0.3,0,0.1,0.5,0.2,0.7H162
		C161.9,26.6,162.6,26.8,162.6,26.4z M160.1,23c-0.3-0.3,0.5,0.2,0.2,0.7c-0.7,0-0.7-0.1-1.4,0c0.3-0.3,0.9-0.5,1.3-0.2
		C160.2,23.3,160,23.3,160.1,23L160.1,23z M159.2,22.5c0.2,0.1,0.2,0.3,0.2,0.6c-0.3,0.1-0.6,0-0.7-0.2
		C158.7,22.7,159.2,22.9,159.2,22.5L159.2,22.5z M158.6,24.7c-0.2,0-0.3-0.2-0.2-0.6c0.2,0,0.2,0,0.2-0.2c0.2,0.1,0.2,0.3,0.2,0.6
		C158.7,24.5,158.7,24.6,158.6,24.7z M158.9,25c0.4,0.1,0.3-0.2,0.7-0.2C159.6,25.2,158.8,25.7,158.9,25z M159.6,27
		c-0.2-0.2-0.1-0.6,0.2-0.6c0,0.2-0.1,0.2-0.2,0.2C160.1,26.6,160.4,26.5,159.6,27z M159.9,25c0.1-0.2,0.2-0.2,0.4-0.2
		c-0.1-0.3-0.7,0-0.6-0.6c0.3,0.1,0.4,0.4,0.8,0.4C160.5,24.9,160.2,25.2,159.9,25z M160.9,25.6c-0.2-0.1-0.2-0.3-0.4-0.2
		c-0.1-0.5,0.7-0.2,0.4-0.8h0.6c-0.1,0.4,0.2,0.4,0.2,0.8C161.2,25.2,160.9,25.2,160.9,25.6z M161.3,28.1c0.1-0.5,0.7,0.2,0.7-0.2
		C162.4,28.4,161.6,28.4,161.3,28.1z M162,30.1c-0.1-0.4,0.2-0.2,0.2-0.6C162.6,29.5,162.1,29.9,162,30.1c0.3,0,0.4-0.2,0.7-0.2
		c0,0.2,0,0.2,0.2,0.2C162.8,30.6,162.3,30.1,162,30.1z M162.3,23.4c0-0.2,0-0.4-0.2-0.4c0.2-0.2,0.5-0.3,0.8-0.4
		c-0.3,0.5-0.3,0.6,0.4,0.4C163.2,23.3,162.7,23.3,162.3,23.4z M258.3,31.2c0.2-0.2,1,0,1,0.4C259.1,31.4,258.3,31.7,258.3,31.2z
		 M259.8,31.8c0.2-0.1,0.2,0.1,0.2,0.2c0.6-0.4,0.9,0.1,1.3-0.2C262.2,32.9,259.6,32.8,259.8,31.8z M262,30.5
		c0.3-0.3,1.2-0.1,1.1,0.4C262.5,31.1,262.3,30.7,262,30.5z M264.9,31.2C263.6,31.7,263.7,30.8,264.9,31.2z M264.1,30.5
		c0.1-0.5,0.6-0.1,0.8,0C264.9,30.9,264.5,30.3,264.1,30.5z M266.6,30.9c-0.3,0-0.1,0.5-0.2,0.7c-0.3-0.4-0.9-0.7-0.8-1.4
		c0.7,0.2,1.2,0.6,2,1C267.2,31.7,267,30.8,266.6,30.9L266.6,30.9z M268.2,30.9c0.5-0.1,0.7,0.2,1,0.2
		C269,31.5,268.2,31.3,268.2,30.9z M270.4,30.7c0.1-0.2,0.3-0.3,0.7-0.2C271.1,30.9,270.8,30.7,270.4,30.7z M275.6,32.2
		c-0.4,0.1-0.3-0.2-0.7-0.2c0.5-0.7-0.2-0.7,0.2-1.3c0.5-0.1,0.7,0.2,0.8,0.6C276,31.8,275.7,31.8,275.6,32.2z M289,65.3
		c0-0.4,1.1-0.9,1-0.2C289.6,65.1,289.4,65.4,289,65.3z M297.2,76.2c-0.4-0.2-1.5,0.3-1.4-0.2C296.1,75.7,297.2,75.6,297.2,76.2z
		 M298,104.5h-0.2c0-0.3,0.5-0.1,0.7-0.2c0.1,0.4-0.4,0.4-0.4,0.7C297.6,105,298.2,104.8,298,104.5z M298,101.6
		c-0.4,0.1-0.2-0.2-0.6-0.2c0.1-0.2,0.2,0,0.4,0c0.2-0.1,0.2-0.2,0.2-0.2C298.5,101.1,298,101.4,298,101.6L298,101.6z M297.2,97.9
		h0.7C297.9,98.3,297.1,98.5,297.2,97.9z M296.2,86.7c0.2,0.1,0.5,0.7,0.7,0.2c0.3,0.1-0.2,0.6-0.6,0.4
		C296.5,87,296.1,87,296.2,86.7L296.2,86.7z M296.4,93.8c0.5-0.1,0.6,0.2,0.8,0.2C297,94.3,296.1,94.3,296.4,93.8z M297.4,113.8
		c0.1,0.3-0.1,0.4-0.2,0.6c-0.3,0.1-0.3-0.2-0.7-0.2C296.5,113.9,297,113.9,297.4,113.8z M297.4,96.9c-0.1,0-0.2,0.1-0.2,0.2
		c-0.5-0.2,0.2-0.3,0.6-0.2c0,0.2,0.2,0.3,0.2,0.6C297.6,97.3,297.6,96.9,297.4,96.9z M295.6,91.4c-0.1,0.2-0.7,0.7-1,0.2
		C294.5,91.1,295.3,91.5,295.6,91.4z M295.8,93.4v0.4c-0.3,0.1-0.4-0.1-0.6-0.2C295.2,93.5,295.5,93.4,295.8,93.4z M293.9,91.4
		c-0.4,0.4-0.8-0.1-0.8-0.6C293.5,90.8,293.9,90.9,293.9,91.4z M293.7,88.9c0.2-0.5,0.9-0.5,1.4-0.6C294.7,88.7,294.4,89,293.7,88.9
		z M294.1,103.4V103c-0.4-0.1-0.4-0.1-0.6-0.6c0.1-0.4,0.3,0.2,0.7,0c-0.4,0.6,0.4,0.3,0.2,1c-0.7-0.1-0.7,0.7-1.3,0.2
		C293.3,103.3,293.7,103.5,294.1,103.4L294.1,103.4z M293.3,96.2c0.3-0.3,0.5-0.2,1-0.2C294.1,96.3,293.5,96.4,293.3,96.2z
		 M293.3,104.5c0.1-0.4,0.7-0.2,0.8-0.6C294.6,104.2,293.8,104.6,293.3,104.5z M294.5,105.4c-0.4,0.2-1.1,0.2-1.1-0.4
		C293.7,105.4,294.6,104.3,294.5,105.4z M293.8,93.4c0.1-0.3,0.5-0.4,0.6-0.7c0.2,0.1,0.3,0.2,0.6,0.2
		C294.8,93.5,294.1,93.3,293.8,93.4L293.8,93.4z M295.1,75.3c-0.6,0.1-0.8-0.1-1.1-0.2C294.1,74.8,295.1,74.9,295.1,75.3z M294.2,78
		c-0.1,0.4-0.4,0-0.2-0.2c-0.7,0-0.6-0.2-1-0.2C293.3,76.7,294,77.7,294.2,78z M293.7,92.1c0.1,0.6-0.5,0.4-0.8,0.2
		C293,92.1,293.3,92.1,293.7,92.1z M292.9,96.5c-0.2,0.4-1.2,0.5-1-0.2C292.3,96.3,292.4,96.6,292.9,96.5z M292.3,107
		c0.2-0.5,0.3,0.3,0.7,0.2c0,0.2-0.2,0.3-0.6,0.2C292.5,107.2,292.5,107.1,292.3,107L292.3,107z M290.5,105.1c0-0.3,0.5-0.2,0.8-0.2
		C291.4,105.2,290.9,105.1,290.5,105.1z M291.2,108.6c0.1,0.7-1,0.9-1,0.2C290.7,108.9,290.9,108.7,291.2,108.6z M291,104.3
		c0.1-0.2,0.2-0.3,0.2-0.6c0.4,0,0.6,0.1,0.6,0.4C291.4,104,291.4,104.4,291,104.3z M291.8,102.9c0,0.4-0.3,0.4-0.7,0.4
		C291,102.8,291.5,103,291.8,102.9z M291.5,94.3c0.5-0.2,0.3,0.3,0.6,0.4C291.9,95.2,291.4,94.8,291.5,94.3z M292.7,104.3
		c-0.2,0.4-0.5,0.7-1.1,0.6C291.7,104.4,292,104.2,292.7,104.3z M291.8,105.8h0.6c-0.1,0.2-0.2,0.3-0.2,0.6
		C291.9,106.3,291.8,106.2,291.8,105.8L291.8,105.8z M292.5,93.6c-0.1,0.2-0.6,0.1-0.4,0.6c-0.2-0.2-0.3,0-0.7,0
		C291.6,93.9,292.1,93.3,292.5,93.6z M289.6,54.5c0.5-0.2,0.4,0.3,0.8,0.2c0.6,0-0.2-0.5,0.2-0.7h0.2c0,0.5,0,0.5-0.2,1.3
		c-0.2,0-0.2,0-0.2,0.2C290.3,55,289.7,55,289.6,54.5L289.6,54.5z M290.2,65c-0.3-0.1-0.2-0.9,0.2-0.7
		C290.6,64.7,290.3,64.7,290.2,65z M290.6,56.6c-0.5-0.3,0.6-0.8,0.8-0.4C291.5,56.5,290.6,56.1,290.6,56.6z M291.4,75.7
		c-0.2,0.2-0.2,0.5-0.7,0.4C290.6,75.7,291,75.7,291.4,75.7z M290,76.2c-0.2-0.3-0.2-0.2-0.7-0.2C289.1,75.6,290.3,75.6,290,76.2z
		 M289.8,73.3c-0.1-0.4,0.3-0.5,0.6-0.2c-0.1,0.1-0.2,0.2-0.2,0.4C290.1,73.4,290,73.3,289.8,73.3z M289.6,89.5
		c0-0.8,1.5-0.2,1.8-0.6C291.6,90,290.1,88.9,289.6,89.5z M289.6,91.2c0.3,0,0.4,0.1,0.4,0.4c-0.3-0.1-0.3,0.2-0.7,0.2
		C289.2,91.5,289.6,91.6,289.6,91.2z M289,93c0.7,0.2,1.1,0.9,1.8,0.2c-0.3,0.2-0.3,0.7-0.6,1C289.7,93.6,289.1,94.1,289,93z
		 M290.4,105.3c0.2,0.2,0.4,0.2,0.4,0.6c-0.2-0.1-0.3-0.2-0.6-0.2c0,0.3,0,0.5,0.2,0.6C290,106.5,290,105.6,290.4,105.3L290.4,105.3
		z M289.1,112.2c-0.1-0.3,0.1-0.4,0.2-0.6c0.2,0.6,0.4-0.2,1.1,0C290.2,112.3,289.6,111.7,289.1,112.2z M290.4,114
		c-0.3-0.1-0.5-0.3-0.4-0.8C290.5,113.1,290.2,113.8,290.4,114z M289.8,115.6c-0.2-0.5,0.3-0.4,0.2-0.8c0.1,0,0.2,0.1,0.2,0.2
		c0.2,0.5,0.5-0.2,0.8-0.2c-0.4,0.6-0.3,0.6,0,1.1C290.4,116.1,290.4,115.6,289.8,115.6z M290.8,121c0.1-0.4-0.2-0.3-0.2-0.7
		C291.1,120.3,291.5,121.1,290.8,121z M291,114.2h0.7C291.9,114.7,290.7,114.9,291,114.2z M292.4,124.1l-0.4-0.4
		c0.2,0,0.3,0.1,0.5,0.2C292.5,123.9,292.5,124,292.4,124.1z M292.3,109.2c0,0.3-0.5,0.1-0.6,0c-0.1-0.3,0.1-0.4,0.2-0.6
		c0-0.2-0.2-0.1-0.2-0.2c0.3-0.5,1.1,0.4,1.3-0.2C293.4,109,291.3,108.7,292.3,109.2L292.3,109.2z M293.5,111.1h-0.6
		c0-0.5,0.5-0.5,0.6-0.8C293.7,110.4,293.3,110.5,293.5,111.1z M293.3,108.5c-0.1-0.3,1-0.5,0.8,0
		C293.7,108.4,293.7,108.5,293.3,108.5z M295.2,108c-0.3-0.1-0.5-0.4-0.8-0.4C294.6,107.2,295.2,107.6,295.2,108z M295.5,120.4
		c-0.4,0.1-0.5-0.2-0.8-0.2c0-0.2,0.2-0.1,0.2-0.2c0-0.2,0-0.4-0.2-0.4c0-0.2,0.2-0.1,0.2-0.2c0.2,0,0.1,0.2,0,0.2
		c-0.1,0.3,0.2,0.2,0.4,0.2L295.5,120.4L295.5,120.4z M295.1,96.7c0-0.2,0-0.2-0.2-0.2c0.2-0.2,0.3-0.4,0.7-0.4
		C295.4,96.2,295.6,96.8,295.1,96.7L295.1,96.7z M295.8,115.8c0-0.3,0.6-0.1,0.8-0.2c0,0.4-0.2,0.6-0.7,0.6c0.1-0.1,0.2-0.2,0.2-0.4
		H295.8L295.8,115.8z M296.9,117.5c-0.4-0.1-0.2,0.2-0.6,0.2c0,0.2,0.2,0.1,0.4,0.2c-0.1,0.5-0.4,0.1-0.7,0c0-0.4,1-0.5,0.2-0.7
		C296.4,116.8,297,117.2,296.9,117.5L296.9,117.5z M296.9,115.4c0.4,0.2,1.1,0.1,1,0.7C297.4,116,297,115.8,296.9,115.4z
		 M297.6,117.6c0-0.3,0.5-0.3,0.7-0.2C298.3,117.9,297.9,117.7,297.6,117.6z M298.5,109.1c-0.4,0.2-0.6,0-0.8-0.2
		c0.3-0.3,0.8,0.3,1.1,0.4C298.7,109.5,298.4,109.3,298.5,109.1z M298.9,116.9c0.2,0.1,0.2,0.3,0.2,0.6c-0.2,0-0.2,0-0.2,0.2
		C298.5,117.4,298.7,117.2,298.9,116.9z M298.6,122.7c0-0.4,0.2-0.7,0.7-0.6c-0.4,0.2-0.3,0.6,0.2,0.4
		C299.4,123,298.8,123.1,298.6,122.7L298.6,122.7z M300.7,122c-0.5,0-0.7-0.2-0.8-0.6C300.1,121.2,300.7,121.5,300.7,122z
		 M299.7,107.6c-0.1,0.3-0.8,0.6-1.1,0.2c0-0.2,0.2-0.1,0.2,0C299.4,108,299.3,107.2,299.7,107.6L299.7,107.6z M299.3,102.9
		c-0.7,0.2-0.6-0.4-1-0.6C298.3,102.2,299.2,102.6,299.3,102.9z M297.6,98.9c0.4,0.4,0.8,0.2,1.3,0.4
		C298.7,99.9,297.5,99.4,297.6,98.9z M299.5,97.1c-0.2,0.2-0.5,0.4-1,0.4C298.7,97.2,298.9,96.9,299.5,97.1z M298.8,96.6
		c-0.2-0.2-0.7,0-0.7-0.4C298.4,96.2,298.8,96.2,298.8,96.6z M297.4,89.5c-0.1-0.3,0.4-0.2,0.4-0.4c0-0.1-0.1-0.2-0.2-0.2
		c0.1-0.2,0.2,0,0.4,0C297.9,89.2,297.9,89.7,297.4,89.5z M612.4,120.2h0.2C612.6,120.2,612.6,120.1,612.4,120.2
		C612.5,120.2,612.4,120.2,612.4,120.2L612.4,120.2z M91.5,115.4h-0.2H91.5z M68,74.1c-0.3-0.1-0.3,0.2-0.7,0.2
		C67.2,74.9,68.1,74.6,68,74.1z M481.4,129.4c0.5-1.6-2.7-4.4-3.7-5.7c-1.7-2.2-2.9-3.9-3.9-5.4c-0.5-0.1-0.4,0.6-1,0.4
		c0.4-0.5-0.5-0.7-0.6-1.1c0,0.2-0.5,0.7-0.7,0.2c0.3-0.3,0.7-0.4,1.1-0.2c0.2,0.2,0,0.9,0.7,0.7c-0.3-1.1-1.8-3-2.7-3.8
		c0,0,0,0.1-0.1,0.1c-0.9-2-2.4-3.5-3.7-5.3c-3.4-4.4-6.8-8.7-9.9-13.2c10-0.4,16.2-5.5,19.9-11.5c-0.1,0.1,0.2,0.2,0.2,0
		c2.1-4,3.8-7.6,3.4-13.6c-0.8-13.8-10.3-22.7-25.4-23.4c-11.2-0.6-22.5,0.5-34.6,0c-0.5,0.4-1,0.8-0.8,1.8c0.2,0.2,0.7,0.2,0.6,0.7
		c-0.2,0-0.3-0.2-0.6-0.2v29.4c0.2,0.4,0.5-0.7,0.8-0.2c-0.1,0.4,0.2,0.3,0.2,0.7c-0.3-0.4-0.8-0.6-1,0.2c0.2,0.1,0.7-0.1,0.6,0.6
		c0.1,0.4-0.8-0.2-0.6,0.4c-0.3,1.6,0.6,5.3,0,4.4c0,1.5,0.1,2.1,0,3.5c0.2,0.4,0.7-0.3,0.8,0.2c-0.7,0.1,0.1,0.3,0.2,0.4
		c-0.3,0.1-0.2,0.4-0.6,0.4c-0.2,0-0.1-0.5-0.4-0.4c0.2,0.7-0.2,1.6,0.4,2c-0.2,0-0.5,0-0.4,0.2c0,1.6,0.1,2.1,0,3.4
		c0.7-0.1,1.1-0.6,1.8-0.7c-0.4,0.5-0.5,0.9-0.7,1.3c0-0.7-0.2,0.2-0.6,0c0.1-0.2,0.3-0.5-0.2-0.4c0,0.2-0.2,0.3-0.4,0.2
		c0.2,2.6-0.4,6,0.2,8.1c0.3-0.1,0.6-0.8,1-0.2c-0.7,0.1-1.1,0.9-1.1,1.1c0-0.3,0.6-0.3,0.6,0c-0.2,0.2-0.9,0.1-0.7,0.8
		c0.5,0.5,0.7-0.2,1-0.2c0.1,1.3-0.6,0.6-1,1c0.2,3.6,0,4.3,0,8.8c0.5,0,1,0,0.8,0.6c-0.5,0.3-0.8-0.7-0.8,0v2.7
		c0,0.2,0.9-0.3,0.8,0.2c-0.5-0.1-0.6,0.2-0.8,0c-0.2,1.2,0.1,2.2,0.6,2.9c-0.5,0.2-0.1-0.5-0.6-0.2c0.1,0.8-0.2,1.9,0.4,1.7
		c-0.7,1.5-0.6,4.9,0,5.8c-0.9,0-0.2,1.2,0,1.4c2.2,0,10.3,1.1,10.8-0.8c0-0.6-0.7-0.8-0.2-1.3c-0.2-0.3-1-0.2-1.1-0.6
		c0.6-0.2,1.1,0.4,1.3,0.2c-0.2-3.8,0.2-8.5-0.2-13c0,0.3-0.7,0.1-0.6-0.2c0.9,0.2,0.1-0.3,0-0.7c0.4-0.2,0.7,0.8,0.7,0.2
		c-0.2-1.2,0.2-3.1,0-5.1c-0.2,0-0.5,0.1-0.6-0.2c0.2-0.2,0.7-0.1,0.6-0.6v-7.2c-0.2-0.1-0.7,0.2-0.7-0.2c0.3,0.1,0.3-0.2,0.7-0.2
		v-1.7c-0.9,0.1-0.3-0.5-0.8-0.7c0.4,0,0.4,0.3,0.8,0.2v-9.5c0-0.7,0.2-1.6-0.2-1c0.5-3.1,0.3-7.2,0.2-9.8c0,0.2-0.2,0.2-0.2,0.2
		c0.6-1.1,0.7-4.2,0.2-6.1c0.1-0.2,0.6-0.1,0.4-0.6c-0.2-0.3-0.5,0.2-0.6-0.2c-0.1-0.4,0.6-0.1,0.4-0.6c0.2-4.8-0.3-8.3,0.2-12.5
		c4.3-0.1,9.4,0.2,13.2-0.2c4.8-0.4,9.8,0.5,13.6,0.2c0,0.3,0.1,0.4,0.4,0.4c6.6,1.6,10.8,6,10.9,13.3c0.2,8.9-6.6,13.6-14.9,14.2
		c-5,0.3-12.3-0.3-16.6,0.4c-0.1,0.7-0.3,0.8-0.2,1.6c0.2,1,2.5,3,3.4,4.3c4.5,6.2,8.5,11.7,12.6,17.2c0.7,0.9,2.2,3.1,2.8,3.4
		c-0.1-0.1,0.2-0.2,0.3-0.1c-0.1,1.2,1.1,2.7,2.4,3.4c-0.5,0.8,0.9,2,1.8,2.3c-0.2,0.4-0.5-0.5-0.7,0c2.5,3,4.7,6.3,7.1,9.4
		c0.2-0.3,0.6-0.8,0.8-0.2c-0.6-0.2-0.4,0.4-0.6,0.7c0.5,0.8,1.8,2.4,2.9,1.3c-0.2,0.5,0.2,0.5,0.6,0.4c0.7-0.1,0.1-0.7,0.8-0.7
		c1,0.8,4.4,1.2,5.5,0.2C477.8,130.5,481.1,130.5,481.4,129.4L481.4,129.4z M429.2,66.7c-0.1,0.6-1.1,0.5-1.1-0.2
		C428.3,66.9,428.8,66.9,429.2,66.7z M428.7,80.7c-0.1,0.4-1.2,1-1.3,0.2C428.1,81.1,428.1,80.8,428.7,80.7z M426.7,123
		c-0.2-0.6,0.7,0,0.4-0.6c0.4,0,0.8,0.1,1,0.2c0,0.5-0.8,0.2-1,0.6c-0.2-0.1,0-0.2,0.2-0.2C427.2,122.9,426.9,123,426.7,123z
		 M422.6,99c0.4,0.1,0.7,0.5,1,0.7c-0.3,0.5-0.6-0.4-1.1-0.2C422,99.7,423.3,99.4,422.6,99z M421.7,86.8c-0.7,0.5-0.8-0.2-1.7-0.2
		c0.4-0.4,0.6-0.1,1,0c0.4-0.1-0.2-0.3,0-0.6c0.4,0.4,0.1-0.2,0.6-0.2c-0.4,0.4,0.2,0.6,0.6,0.7c-0.2,0.6,0.3,0.6,0.2,1
		c-0.1-0.1-0.2-0.2-0.4-0.2C422.4,87.2,421.8,87.1,421.7,86.8L421.7,86.8z M422,85.4c0-0.3-0.4,0.2-0.6-0.2
		c-0.4-0.1-0.1,0.7-0.6,0.6c0.2-0.8-0.8-0.4-0.7-1.1c0.7,0.2,1.1,0.3,1.8,0.2c0.2,0.4,0.2,0.8,0.8,0.7c-0.3,0.2-0.4,0.8,0.2,0.8
		c-0.1,0.2-0.3,0.2-0.6,0.2C422.1,86.3,422.4,85.9,422,85.4L422,85.4z M422.6,85.2c0.2-0.3,1.2-0.2,1.1,0.2
		C423.3,85.7,422.9,85.5,422.6,85.2z M424,87.2c0,0.2,0,0.4,0.2,0.4c-0.1,0.4-0.2-0.2-0.4-0.2c-0.4,0.1,0.1,0.5,0,0.7
		c-0.2,0.2-0.6,0.1-0.4,0.6c-0.2-0.1-0.2-0.2-0.4-0.2c0-0.3,0.5-0.2,0.7-0.4c-0.2-0.4-0.6-0.7-0.8-1C422.5,86.7,423.4,87.5,424,87.2
		L424,87.2z M426.9,91.2c-0.8-0.1-0.7-0.3-1.4,0v-0.8c-0.2,0.1-0.2-0.1-0.2-0.2c0.5,0.2,0.9,0.7,1.6,0.2
		C426.5,90.9,426.7,90.8,426.9,91.2z M427.7,112.2c-0.2,0.2-0.4,0.6-0.7,0.2c0-0.2,0.2-0.1,0.4-0.2c0.1-0.4-0.4-0.2-0.2-0.7h0.6
		c0.4,0.1-0.2,0.2-0.4,0.2C427.4,112,427.5,112.2,427.7,112.2L427.7,112.2z M426.9,92.4c0.2,0.1,0,0.2,0,0.2
		c0.2,0.6,0.7-0.1,0.8,0.2c0.2,0.5-0.5,0.1-0.4,0.4c0.2,0.5,0.4-0.3,0.8-0.2c0.2,0.5-0.5,0.2-0.4,0.6c-0.4-0.1-0.7-0.2-1-0.4
		C427.2,93,426.6,92.6,426.9,92.4z M426.7,91.5c0.7,0.2,0.8,0.4,1.6,0.2C428.1,92.7,426.9,91.9,426.7,91.5z M424.4,88.8
		c0.4-1.1,1.2-0.1,1.7,0.2C426,89.7,425.2,88.1,424.4,88.8z M423.8,100.8c-0.7,0.5-0.3-0.9,0.2-0.7
		C424.2,100.4,423.4,100.7,423.8,100.8z M424,104.7c-0.4,0-0.9,0-0.8-0.4C423.5,104,424,104.2,424,104.7z M423.2,91.1
		c0.5,0.2,0.9,0.5,1.1-0.2c0.4,0,0.4,0.3,0.4,0.7c-0.7-0.2-0.9-0.1-1.6,0.2C422.8,91.5,423.3,91.6,423.2,91.1z M423.4,90.9
		c0-0.2,0.2-0.3,0.2-0.6c0.2,0.1,0.2,0.1,0.2,0.2c0.2,0,0.2,0,0.2-0.2C424.7,90.8,423.6,91.2,423.4,90.9z M424.4,93.4
		c-0.3-0.2-0.8-0.1-1.1-0.2C423.5,93,424.6,93,424.4,93.4z M424.6,95c-0.2,0.2,0,0.3,0,0.7c-0.3-0.1-0.7-0.1-0.7-0.6
		C424.2,95.3,424.2,95,424.6,95z M424.2,100.8c0.3,0,0.2,0.5,0.2,0.8C423.9,101.7,424.2,101,424.2,100.8z M424,98.7
		c0.1-0.6,0.2-0.4,0.2-0.8c0.6,0.1,0.4,0.5,0.2,0.7c0.2,0,0.3-0.2,0.6-0.2C425,98.9,424.4,98.7,424,98.7z M424.8,95.2
		c0.2,0.1,0.2-0.1,0.2-0.2c0.2,0.2,0.2,0.7,0.6,0.7C425.5,96,424.7,95.6,424.8,95.2z M423.8,86c-0.3-0.3,0.3-0.5,0.2-1
		c0.1,0.5,0.4,0.7,1,0.8C424.7,86.1,424.4,85.7,423.8,86z M423.4,89.1c0,0.2,0.1,0.6,0.8,0.4c-0.2,0.5,0.2,0.5,0.6,0.4
		c-0.2,0.6-1-0.3-1.8,0c0.7-0.7-0.7-0.6-1.1-0.2c-0.1-0.3-0.2-0.5-0.6-0.6C421.9,88.4,423.3,89.7,423.4,89.1L423.4,89.1z
		 M423.2,92.1c0,0.7-0.6,0.6-1.1,0.4C422,92,422.7,92.1,423.2,92.1z M423.7,96.3c-0.4,0.4,0.2,0.6,0.2,1c-0.5,0.1-0.2-0.6-0.7-0.4
		C423.2,96.6,423.3,96.3,423.7,96.3z M422.7,102.1c0.3,0.2,0.4-0.1,0.6,0.2c0,0.5-1.1,0.5-1.4,0.2
		C421.9,101.9,422.7,103.1,422.7,102.1z M423,103.3c-0.1,0.4-0.6,0.3-0.7,0.7C421.9,103.6,422.7,103.3,423,103.3z M422.7,113.8
		c0.5,0.7-0.7,0-1,0.4C421.4,113.4,422.7,114.3,422.7,113.8z M422.4,105.3c-0.3-0.2,0.1-0.9,0.6-0.7
		C423.1,105.1,422.4,104.9,422.4,105.3z M423.4,106.5c0.2,0.2,0.5,0.1,0.4,0.4c-0.3-0.1-0.7,0.2-0.2,0.2c0,0.4-0.7,0.3-0.8,0.2
		C422.9,106.8,423.5,107.1,423.4,106.5z M423.6,108c0.4-0.1,0.4,0.4,0.7,0.4c0,0.3-0.5,0.1-0.7,0.2V108z M424.8,112.9
		c0.2,0.3-0.6,0.8-1,1C424,113.4,424.7,113.5,424.8,112.9z M423.8,102.3c-0.1-0.7,0.6-0.7,1.1-0.7
		C424.7,101.9,424.3,102.1,423.8,102.3z M426,103.9c0.1,0.4-0.2,0.2-0.2,0.6c-0.2-0.2-0.4-0.4-0.7-0.6
		C425.4,103.8,425.4,103.8,426,103.9z M426.3,107c-0.1,0.4-0.8,0.6-0.8,0C425.7,106.7,426,106.9,426.3,107z M425.7,100.8
		c0.1-0.5-0.2-0.4,0-0.7c0.3-0.1,0.4,0.1,0.6,0.2v0.6C426.3,100.8,425.7,100.8,425.7,100.8z M426,95.9h0.8c-0.7-0.7-2-1.3-1.3-2.4
		c-0.1-0.2-0.7,0-0.6-0.6c0.5,0.2,0.7,0.7,1.1,0.8c0,0.2-0.2,0.3-0.6,0.2c0.3,0.2,0.2,0.5,0.2,0.8c0.6,0.2,0.3-0.5,0.7-0.6
		c0.4,0.2-0.2,0.6-0.2,0.7c0.6,0.6,0.6-0.5,1.1-0.4c-0.3,0.2-0.7,1,0.2,1v0.6c-0.6,0.2-1-0.4-1,0.2C426.2,96.3,426,96.2,426,95.9
		L426,95.9z M426.7,96.5c0.2,0,0.1,0.5,0.4,0.4c-0.1,0.2-0.2,0.2-0.2,0.4C426.3,97.2,426.8,97,426.7,96.5z M428.7,123
		c0,0.4-0.3,0.4-0.7,0.4C427.9,123,428.3,123,428.7,123z M428.4,114h0.4c0,0.2,0,0.4,0.2,0.4C428.8,114.9,428.2,114.5,428.4,114z
		 M427.7,96.1c0.2-0.5,1-1,1.6-0.6C429.1,96,427.9,95.6,427.7,96.1z M429.1,94.9c-0.3-0.3-0.4-0.2-1-0.2
		C428,94.3,429.3,94.3,429.1,94.9z M426.9,86.6c-0.1,0.2-0.2,0.4-0.2,0.7c-0.3,0-1-0.2-0.6,0.2c-0.1,0.2-0.3,0.1-0.6,0.2
		c0.1-0.2,0.4-0.1,0.2-0.6C426.5,87.1,426.3,86.5,426.9,86.6L426.9,86.6z M425.6,85.6c0.4,0.1,0.7,0.3,0.8,0.7
		C426.1,86.1,425.5,86.1,425.6,85.6z M424.7,84.4c0.4,0.3,0.9,0.5,1.6,0.6C426.1,85.4,424.6,85.2,424.7,84.4z M425.7,84
		c-0.1,0.2-0.3,0.1-0.2-0.2c-0.2,0-0.4,0-0.4,0.2C424.5,83.4,425.7,83.4,425.7,84z M424.4,78.8c0,0.4-0.5,0.4-0.8,0.6
		C423.7,79,424.1,78.8,424.4,78.8z M423,80.9c0.5,0.7,1.4,0.3,2.1,0.4c0.1,0.4-0.5,0.3-0.7,0.4c0.4,0.7-0.4,0.2-0.2,0.8
		c0.3,0.2,0.7,0.4,1,0.6c-0.2,0.2-0.5,0.6-0.8,0.2c0-0.2,0.2-0.1,0.4-0.2c-0.2-0.4-0.7-0.7-1.3-0.4c-0.1-0.3-0.5-0.2-0.4-0.7
		c0.4-0.1,0.6,0.2,0.7,0.2C424.3,81.6,422.8,81.8,423,80.9z M422.2,79.6c0.4,0,0.7,0,0.7,0.4C422.4,80.1,422.1,80.1,422.2,79.6z
		 M422.2,82c0.2,0.1,0.1,0.3,0.2,0.6c-0.2,0-0.5,0.1-0.6,0.2c0.3,0.6,0.5-0.3,0.8-0.2c0.5,0.7,0.8,0.7,1.1,1.4
		c-0.7,0.1-0.9-0.5-1.1-1c-0.8-0.1-0.3,0.7-0.6,1c-0.3-0.1-0.2-1.1-1-0.7C421,82.4,421.9,82.6,422.2,82c-0.4,0.3-0.8-0.1-1.1-0.2
		C421.2,81.1,422.2,81.2,422.2,82z M421.9,63.2h-0.7C421.1,62.8,422,62.7,421.9,63.2z M421,80.5c0.3-0.3,0.4-0.8,1-0.8
		c-0.2,0.2-0.3,0.4-0.6,0.6c0,0.2,0.2,0.1,0.4,0.2c0.1,0.5-0.6,0.3-0.6,0.7c-0.4,0.1-0.2-0.5-0.4-0.6C420.6,80.3,421,80.2,421,80.5z
		 M419.7,83.5c0.6,0.2,1.4-0.2,1,0.6C420.5,83.8,419.8,84,419.7,83.5z M419.7,86.7c0.1,0.4,0.8,0.2,0.7,0.7
		C419.9,87.5,419.8,87,419.7,86.7z M420.1,88.1c0.2-0.7,1.2,0.3,1.1-0.6c0.3,0,0,0.5,0,0.6c0.2,0.4,1.1-0.2,1.3,0.2
		C422,88.9,420.9,88.2,420.1,88.1z M419.7,90.7c0.7,0,0.7-0.3,1-1c0.2,0.2,0.2,0.6,0.2,0.8C420.6,90.6,420.1,91.1,419.7,90.7z
		 M420.1,93.9c0.4-0.4,0.2-0.6,0.6-1c0.2,0,0.3,0.2,0.6,0.2C421,93.5,420.7,93.9,420.1,93.9z M421.3,93c1.1-0.2,1.1,0.6,1.8,0.2
		c0.1,0.5-0.3,0.6-0.7,0.7c0.3-0.3,0.3-0.5-0.2-0.7c-0.5-0.2-0.4,0.3-0.8,0.2C421.4,93.4,421.3,93.2,421.3,93z M422.2,110.8
		c0.1,0.3-0.2,0.3-0.2,0.7c-0.2,0-0.4,0-0.4,0.2c-0.3,0,0.1-0.4,0.2-0.2c0.1-0.4-0.3-0.4-0.6-0.6
		C421.5,110.3,421.7,110.8,422.2,110.8L422.2,110.8z M420.7,110.4c-0.2-0.1-0.2-0.2-0.4-0.2c-0.1-0.4,0.4-0.4,0.4-0.7
		C421.5,109.7,420.3,109.9,420.7,110.4z M422,127.4c-0.4,0-0.9,0.1-0.8-0.4C421.3,127.3,422.1,126.8,422,127.4z M421.7,122.3
		c0.2-0.8,1.1,0,1.6-0.4C423.1,122.7,422.3,121.9,421.7,122.3z M422.3,120.4c-0.3-0.1-0.1-0.7-0.2-1c0.2-0.1,0.2,0.1,0.2,0.2
		c0.4,0.1,0.4-0.2,0.8-0.2C423.2,120.1,422.3,119.8,422.3,120.4L422.3,120.4z M422,118.3c0.6,0.2,0.7,0,1.4,0
		C423.1,118.5,422.1,119.1,422,118.3z M423.2,116.2c0.5-0.8,1.5,0.2,1.8,0.4c-0.5,0.2-0.8,0.6-0.7,0.8c-0.5,0.2-0.1-0.5-0.4-0.4
		C424.7,116.8,424.1,115.9,423.2,116.2z M424,119.7c-0.4,0.1-0.5-0.2-0.4-0.6h0.6C424.2,119.4,424,119.5,424,119.7z M425,119.1
		c-0.6-0.3-1.1-0.6-1.3-1.3c0.2,0.4,0.7,0.7,1.6,0.6c0-0.4-0.6-0.2-0.6-0.7C425.4,117.4,425.6,118.8,425,119.1L425,119.1z
		 M424.8,116.2c-0.1-0.4,0.3-0.2,0.4-0.4c-0.2-0.3-0.7-0.3-0.6-1c-0.6-0.2-0.6,0.3-1,0.2c0.1-0.1,0.2-0.2,0.2-0.4
		c-0.2,0.1-0.3,0.2-0.2,0.4c-0.5-0.1-0.1-0.6,0-0.8c0.4,0.2,1.3,0.4,1.1-0.4c0.9,0-0.4,0.7,0.6,0.8c-0.7,0.5,0.6,0.9,0.8,1.3
		C425.7,115.9,425.5,115.9,424.8,116.2L424.8,116.2z M425.7,115.4c-0.4-0.2,0.1-0.7,0.4-0.6C426.2,115.2,425.7,115,425.7,115.4z
		 M427.9,128.4c-0.7,0-0.7-0.4-1.3-0.6c0.6-0.6-0.4-0.4-0.2-1c0.3,0.3,1.6,0.5,1.7-0.2c0.3,0,0.1,0.5,0.2,0.7
		c-0.1,0.2-0.6,0-0.6,0.2c-0.1,0.2,0.7,0.2,0.6,0C428.5,127.8,427.9,128.2,427.9,128.4z M430.1,128.2c-0.4,0.9-1.1-0.7-1.6,0.2
		c-0.7-0.6,0.8-0.2,0.6-1C429.9,127.5,429.3,128.1,430.1,128.2z M429.7,90.5c0-0.2,0.2-0.1,0.2-0.2c0-0.2,0-0.2-0.2-0.2
		c0.1-0.2,0.2,0.1,0.4,0c0.2,0,0.1-0.2,0.2-0.2C431,90,430.3,90.7,429.7,90.5z M430,85.2c-0.8-0.2-0.8,0.5-1.1,0.8
		c-0.3-0.2,0.2-0.6,0-1c0.3-0.1,0.5-0.2,1-0.2c0-0.6,0.4-0.7,0.2-1.3C430.8,83.9,430.1,85,430,85.2z M444.6,54.1
		c0.5-0.2,0.7-0.6,1-0.8C445.8,53.5,444.9,54.4,444.6,54.1z M447.8,54.1c-0.5,0.1-0.4-0.2-0.7-0.2C447.2,53.5,448,53.7,447.8,54.1z
		 M448.5,57.4c-0.5-0.3,0.3-0.8,0.6-0.4C449,57.3,448.5,57.2,448.5,57.4z M448.4,52.3c0-0.3,0.6-0.1,0.8-0.2c-0.1,0.2,0,0.4,0.2,0.4
		C449.2,53.1,448.7,52.4,448.4,52.3z M471.1,85c-0.3,0.2-0.7,0.5-1,0.2C470.2,85,470.6,85,471.1,85z M469.1,75.6
		c0.2,0.2,0.7,0.6,0.4,0.8c-0.2,0.2-0.5-0.4-0.6,0C468.6,76.4,469.3,76,469.1,75.6z M452.6,103.1c0.3,0,0.6,0.2,0.6,0.6
		C452.9,103.7,452.6,103.5,452.6,103.1z M456.9,105.4c0.2-0.4,1.1-0.5,1.3-0.4C457.9,105.3,457.3,105.3,456.9,105.4z M459.4,114.6
		c-0.3-0.2-0.4-0.4-0.8-0.4C458.8,113.9,459.6,114.1,459.4,114.6z M459.3,112.8c0.2,0.3,0.6,0.2,0.6,0.7
		C459.6,113.3,459,113.1,459.3,112.8z M467.2,110.9c0.6,0.2-0.2,0.9,0.8,0.7c-0.3,0.7-0.6-0.2-1-0.2
		C467.1,111.2,467.2,111.1,467.2,110.9z M464.1,119.7c-0.2,0.4-0.6-0.2-0.4-0.6C464.3,119,463.8,119.8,464.1,119.7z M462.7,108.8
		c0-0.4,0.8-0.3,1-0.2c-0.1,0.2-0.2,0-0.4,0s-0.1,0.2-0.2,0.2h-0.2C462.9,108.8,462.8,108.8,462.7,108.8z M462.9,110.5
		c0.2-0.3,0.7,0.4,1.1,0c-0.2,0.2-0.3,0.4-0.7,0.4C463.2,110.8,463.1,110.6,462.9,110.5z M463.7,122.6v-0.8c0.7-0.2,0.2,0.6,0.7,0.6
		C464.3,122.5,464,122.5,463.7,122.6z M463.1,121.2c0.1-0.4,0.9-0.6,1.3-0.2C464.1,121.3,463.7,121.4,463.1,121.2z M466,118.9
		c0.5-0.1,0.5,0.2,0.6,0.6C466.3,119.3,465.9,119.3,466,118.9z M466,116.8c0.3-0.1,0.7-0.2,1.1-0.4c0,0.2-0.4,0.2-0.2,0.6
		C466.5,116.9,466.2,116.9,466,116.8L466,116.8z M466.8,123.2c0.2-0.5,0.5,0.2,0.8,0.2c-0.3,0.3,0.2,0.2,0.2,0.7
		C467.4,123.8,467.4,123.2,466.8,123.2L466.8,123.2z M467.6,113.6c0.5-0.1,0.4,0.4,0.7,0.6C468,114.6,467.6,114,467.6,113.6z
		 M469.4,128.2c0.2-0.2,0.8-0.4,1.1-0.2C470.6,128.8,469.5,128.5,469.4,128.2z M470.1,127.1c0.7,0.1,0.7,0.8,1.4,0.8
		C471.1,128.6,470.2,127.7,470.1,127.1z M99.2,122.7c0.2,0.9,1.4,0.7,1.8,1.3C101.2,122.8,99.7,122.6,99.2,122.7z M262.5,32.6
		c0.5,0,0.4-0.5,0.7-0.7c-0.2,0-0.3-0.2-0.6-0.2C262.4,32,262.4,32.3,262.5,32.6L262.5,32.6z M165.6,86c0.9,0,0.3-1.5,0-1.6
		c0.2,0,0.2,0.2,0.2-0.2c0.2-1.3-0.5-2.5-0.7-3.7c-0.5-2.7-1.1-5.4-2-7.6c-0.1-0.2-0.6,0-0.6-0.2c0.3-1-1-2.8-1.7-3.7
		c0.2,0,0.2,0.1,0.2,0.2c-6.3-11.4-17.7-21.4-33.9-22.2c-19.6-1-32.6,8.6-40,21.4c0.2,0.2,0.7,0.1,0.6,0.6c-0.3-0.1-0.2-0.5-0.7-0.4
		c-0.2,0.5-0.9,1.1-0.6,1.8C85.6,70.7,85,72,85.1,73c-1.2,0.7-0.8,2.4-1.1,3.1c-0.4,0.1,0.3-0.4-0.2-0.4c-0.7,0.6,0.2,1.4,0.2,1.6
		C83.9,77,83.5,77,83.2,77c-0.1,1.9-0.4,1.8-0.8,3.9c0.3-0.1,1.1-0.3,1,0.2c-0.5,0.2-1.1-0.4-1,0.2c-1.5,5.8-0.6,15.2,1,20.1
		c0.2,0.1,0.3-0.2,0.4,0c-0.3,2.1,1.2,3.4,1.6,5.4c0.2,0.1,0.7-0.2,0.7,0.2c0,0.2-0.4,0.1-0.4,0.2c1.1,2.2,2.5,4.8,3.9,6.6
		c0.4,0.6,0.8,1.4,1.5,1.6c-0.2-0.2-0.1-0.7,0.2-0.7c0.6,0.1,0.7,0.7,1.1,0.8c-0.2,0.2-0.7,0.1-0.7,0.4c-0.1,0.9,1.1,0.7,1.1,1.3
		c0.1,0.4-0.4-0.3-0.4,0.2c0.6,0.2,1.1,1.4,1.6,1.3c-0.7-0.5,0.8-0.9,0.8-1.6c0.5,0,0.7,0.2,1.1,0.4c-0.3,0.3-0.6-0.2-0.8,0.2
		c-0.1,0.4,0.5,0.4,0.2,0.7c-0.4,0-1-0.1-1,0.2c0.7-0.1,0.8,0.7,0.6,1.1c0.7,0,1.1,0.3,1.6-0.2c0.2,0.3,0.4,0.4,0.4,0.8
		c0,0.3-0.6,0.2-0.6,0.6c0.6,0.4,1.1,0.7,1.7,1.1c0.8,0.3,0.9-0.6,1.3-0.2c0,0.2-0.5,0.1-0.4,0.4c0.9-0.5,1.2,0.4,1.8,0.7
		c1.4-1.2-0.2,2.1,1.7,2.3c0-0.4-0.5-0.6-0.2-0.8c0.4,0.3,1.6,1.1,1,1.4c2.8,1.5,7.1,3.4,10.9,4.3c1.1,0.2,3.4,0.7,3.9,0.2v0.4
		c5.1,0.6,10.9,0.3,15.2-0.7c17-4,30.2-17.8,32.3-36c0.2-2.4,0.3-5.3,0.2-7.8C166,86.1,165.6,86.2,165.6,86L165.6,86z M84.5,76.8
		c-0.3-0.4,0.9,0.3,0.8-0.2c0.4,0.1-0.3,0.7,0.2,0.7C85.2,77.6,85,76.6,84.5,76.8z M85.3,75.9c0.2-0.6,0.9-0.3,1.4-0.2
		C86.3,75.7,85.9,76.1,85.3,75.9z M86.7,78c0.5-0.2,2.1-0.8,1.4-1.3c-0.1-0.5,0.7,0.1,0.7,0.4C88.2,77.4,87.8,78.7,86.7,78z
		 M88.8,72.5c-0.2-0.2-0.2-0.4-0.6-0.4c0-0.3,0.5-0.3,0.7-0.2C88.9,72,88.8,72.3,88.8,72.5z M89.4,81v0.4c0.1,0.2,0.2,0.2,0.4,0.2
		C89.6,82.1,88.5,81,89.4,81z M89.1,75.5c0.2-0.2,0.5-0.2,0.8-0.2C89.9,75.6,89.4,75.8,89.1,75.5z M90.2,78.2
		c0.4-0.1,0.4,0.2,0.7,0.2C90.9,78.8,90.1,78.5,90.2,78.2z M91,72.1c-0.1,0-0.2-0.2-0.2-0.2c-0.2,0.1,0.1,0.2,0,0.4
		c-0.3,0-0.3-0.5-0.2-0.7C90.9,71.5,91,71.7,91,72.1z M91.7,86c-0.2-0.2,0.1-0.7,0.6-0.6C92.2,85.7,92,85.9,91.7,86z M91.5,78.3
		c0.1-0.4,0.7-0.7,0.7,0C91.9,78.3,91.8,78.6,91.5,78.3z M156.4,66.9c-0.3-0.1-0.5-0.3-0.7-0.4C155.9,66.1,156.4,66.6,156.4,66.9z
		 M152.1,70.4c0,0.3-0.2,0.6-0.6,0.6C151.3,70.5,151.4,70.3,152.1,70.4z M151.9,73.5c-0.1,0.2-0.4,0.4-0.7,0.4
		C151.2,73.5,151.5,73.4,151.9,73.5z M146,55.4c0.1,0.1,0.2,0.2,0.4,0.2c0.1,0.4-0.2,0.6-0.4,0.7c-0.2-0.1,0-0.2,0.2-0.2
		C146.2,55.6,145.6,55.7,146,55.4z M146.7,59.3c1,0.2-0.6,0.1-0.8-0.2C146,58.7,146.5,59.2,146.7,59.3z M120.3,51.9
		c0.4-0.1,0.2,0.5,0.7,0.2c0.4-0.2-0.4,0.2-0.4,0.4C120.3,52.6,120.3,52.2,120.3,51.9z M96,72.2c0.2,0.5,0.6,0.6,0.7,0.8
		c-0.7,0.2-0.6-0.6-1.1-0.6C95.5,72.3,96,72.4,96,72.2z M95.4,73.7c0.1,0.1,0.2,0.2,0.4,0.2c-0.2,0.2,0,0.3,0,0.7
		C95.5,74.2,95.1,74.1,95.4,73.7z M94.9,74.9c-0.2,0-0.1,0.5-0.2,0.6c-0.4-0.3,0.1-0.8,0.6-0.7C95.5,74.9,95.1,74.9,94.9,74.9z
		 M95.2,75.7c-0.2,0.3-0.4,0.4-0.8,0.4C94.3,75.7,94.8,75.7,95.2,75.7z M94.8,71c0,0.4,0,0.9,0.4,0.8c-0.4,0.3-0.7-0.7-1-0.8H94.8z
		 M94.5,73.8c0.2,0.1,0.3,0.2,0.6,0.2c-0.2,0.4-0.5,0.2-0.8,0C94.2,73.9,94.5,74,94.5,73.8z M96.6,119.1c-0.5-0.1-0.6,0.7-1,0.2
		c0.2-0.1,0.7-0.4,0.2-0.7c0-0.3,0.5-0.1,0.7-0.2C96.4,118.7,96.6,118.6,96.6,119.1L96.6,119.1z M96.9,110.7v-0.4
		c0.3-0.1,0.4,0.1,0.6,0.2C97.4,110.6,97.3,110.7,96.9,110.7z M97,119.1c0.2-0.3,0.6-0.4,1-0.4C97.8,119,97.6,119.2,97,119.1z
		 M97.5,120.4c0.5-0.4,1.4,0,1.4,0.6C98.3,120.9,98.3,120.2,97.5,120.4z M100.1,112.5c0.2,0,0.3-0.2,0.6-0.2
		C100.8,113,100,113.1,100.1,112.5z M102,114c-0.3-0.2-0.2-0.5-0.6,0.2c-0.5-0.4,0.4-0.6,0.2-1c0.4,0.2,0.7-0.1,1,0.2
		C102.4,113.5,102.1,113.7,102,114z M102.3,112.5c0,0.7-0.5,0.3-0.7,0.6C101.2,112.8,101.9,112.4,102.3,112.5z M103.3,116.6
		c-0.3,0.5-0.2-0.6-0.7-0.4c0-0.2,0.2-0.3,0.2-0.6c0.4,0,0.2,0.6,0.7,0.6C103.5,116.3,102.9,116.5,103.3,116.6z M120.6,122.7
		c0.3-0.2,0.9-0.1,1.3,0C121.7,123.1,120.7,123.2,120.6,122.7z M148.6,108.1c0,0.2,0.2,0.1,0.2,0.2c0.2,0.7-0.3-0.1-0.4,0
		c-0.5,0.2-1.5,1.7-2,2.3c-5.3,5.3-11.2,8.9-21.3,9.7c-6.5,0.5-12.9-1.6-17.5-4.7H107c-0.1-0.5-0.4-0.8-1.1-0.7
		c-0.4-1.1-2.1-2.1-3.3-3C96,105.8,91,93,94,81.1c-0.1-0.3-0.9,0-0.7-0.6c0.5-0.1,0.6,0.2,0.8,0.2c0.2-1.9,1.4-3.4,1.4-5.1
		c0.7-1,1.8-2.3,1.8-3.9c0.5,0.4,0.4-0.4,0.8-0.4c4.6-7.1,12.2-13.3,23.4-14c8.9-0.6,15.5,2.3,20.7,6.2c0.3,0,0.6,0,0.6-0.2
		c0.9,2.2,3.9,3.5,5.1,6c0.4,0.1,0.6-0.3,0.8,0c-0.7,0.2-0.2,0.7,0,1c0.1,0,0.2-0.1,0.2-0.2c-0.1-0.7,0.4,0.2,0,0.2
		c-0.2,0.9,1.3,0,1.1,0.6h-0.6c0,0.8,0.9,1.9,1.7,2.4c-0.1-0.1-0.2-0.2-0.4-0.2c0.5,1.1,0.7,2.5,1.7,3c-0.2,1.1,0.8,3.5,1.3,5.4
		C156.1,91.1,153.5,102.1,148.6,108.1L148.6,108.1z M155.6,68.5c0.6-0.2,0.8-0.7,1.6-0.6C156.8,68.2,156.1,68.8,155.6,68.5z
		 M158.3,81.3v-0.4h0.6C158.9,81.2,158.6,81.2,158.3,81.3z M158.2,74.5c0.2-0.2,0.7-0.2,0.8-0.6c0.1,0.2,0.4,0.2,0.4,0.6
		C159,74.2,158.8,74.9,158.2,74.5z M161.6,88.1c-0.6-0.1-0.7,0.2-1.1,0.2c0.3-0.4,1.1-0.4,1.4-0.7C161.9,87.8,161.5,87.7,161.6,88.1
		z M162.4,75.3v-0.4c0.3-0.1,0.4,0.1,0.6,0.2C163,75.3,162.8,75.4,162.4,75.3z M611.1,119.7c0,0.4,0.7,1,1.3,0.5
		c-0.2,0-0.5-0.1-0.7-0.1C611.7,119.8,611.4,119.7,611.1,119.7L611.1,119.7z M281.1,129.6c0.2-0.1,0.6-0.1,0.6-0.4h-0.6V129.6z
		 M232.7,102.9c0.1,0.8-0.9,0.2-0.8-0.2c0.2-0.7,0.8,0.2,0.8-0.4c-0.2-1.2-0.2-1.9-0.8-2.7c0.6-0.3,0.1-1.4-0.4-1.6
		c0.5-0.9-0.7-1.8-0.6-2c-0.3-0.9-0.8-1.6-1.3-2.4c-0.3-0.1-0.9,0.2-1-0.2c0-0.3,0.5-0.1,0.7-0.2c-5.3-7.9-16.1-10.4-26.3-13
		c-0.4-0.4-0.1,0.2-0.6,0.2c-1.3-1-3-1.3-4.5-2c-1.6-0.7-3-1.4-4.4-2.1c-2.2-1.8-3.5-4.4-3.1-8.2c1-9.1,12.3-12.6,22-9.5
		c0.5-0.1-0.6-0.4,0-0.6c0.3,0.2,0.6,0.7,0.2,0.8c4.8,1.6,7.1,5.7,8.6,10.7c0.1,0,0.2,0,0.2,0.2c3-0.2,4.9-1.1,8-1.4
		c0-0.3-0.2-0.4,0.2-0.6c0.7,1.1,2.8-0.6,2.1-2c-0.3-0.6-0.9-0.1-1.3-0.6c0.1-0.3,1.1,0.2,1-0.4c-0.2-1.1-0.7-2.1-1-3.1
		c-0.5-0.2-0.1,0.7-0.7,0.4c0.6-0.8-0.7-1.5,0.2-1.7c-4.2-7.7-10.8-13-21.6-13.6c-16.6-0.9-29.2,8.3-29.4,24.5
		c0.1,0.4,0.5,0.3,0.6,0.7c-0.1,0.2-0.6,0.1-0.4,0.6c0.4,1.4,0.2,3.4,1.3,4.1c-0.2,0.3-0.3,0.2-0.2,0.7
		c4.4,10.8,17.3,13.1,29.4,16.3c0.1,0.4,0.2-0.3,0.6-0.2c-0.1,0.2-0.3,0.5,0.2,0.4c2.5,1.1,5.2,1.9,7.2,3.4c2.1,1.6,3.2,3.7,4.3,6.4
		c-0.4,1,0,3-0.2,4.1c-0.5,5.1-3.8,8.4-7.6,10.5c-0.5,0,0.3,0.5-0.2,0.4c-0.2-0.1-0.1-0.4-0.4-0.2c-1.9,0.9-5.3,1.8-7.2,1.7
		c-0.3,0.2-0.3,0.2-0.4,0.4c-9.2-0.5-17.7-4.5-18.7-13.6c-0.1-1.1,0-1.4-0.6-2c-0.1,0-0.2,0-0.2-0.2c-1.6-0.2-2.4,0.6-3.9,0.6
		c-0.2,0.6,0.6,0.7,0,0.8c-0.4,0.1,0.2-0.8-0.4-0.6c-2.1,0.2-4,0.5-5.7,1.1c-0.2,7.3,3.4,12.6,8,16.9c7,6.5,18.7,9.1,30.2,5.8
		c0.5-0.2-0.1-0.6,0.4-0.7c1.3,0.7,2.5-0.7,3.5-1.3c0,0.2-0.2,0.3,0,0.4c0.8-0.5,1.8-0.7,2.4-1.4c-0.2-0.3-0.6,0.2-0.7-0.2
		c0.5-0.1,0.7,0.2,1,0.2c3-2.1,6.4-4.6,7.8-7.8c0.4,0.1,0.2-0.2,0.6-0.2c0.1-0.4,0.1-0.2,0-0.7c0.7,0.2,0.7-1.2,1.3-1.6
		c0.2-0.5-0.5-0.7-0.2-0.8c0.2,0,0.4,0,0.6-0.2c1.1-2.6,1.5-5.6,1.8-8.5c0.2-0.5-0.3-0.3-0.4-0.6
		C233.6,105.8,232.9,103.6,232.7,102.9L232.7,102.9z M227.8,67.9c-0.1-0.4,0.7,0.1,0.7-0.2c0.2,0,0.1,0.2,0.2,0.4
		C228.3,68.1,228,68.1,227.8,67.9z M227.4,65.5c0.2,0.2,0.7,0.1,0.6,0.6C227.5,66.2,227.4,66,227.4,65.5z M231.1,66
		c0.1,0.6-1,0.5-1.3,0.2C230.1,65.9,230.6,65.8,231.1,66z M229.7,65.4c-0.4,0.1-0.5-0.2-0.8-0.2C228.8,65.1,229.9,65,229.7,65.4z
		 M228.5,60.5c-0.2,0.4,0.6,0.7,0.2,0.8c-0.3-0.7-1.5-0.5-1.7-1.3C227.5,60.2,227.8,60.6,228.5,60.5L228.5,60.5z M227.7,64
		c-0.1,0.2-0.2,0.2-0.2,0.4c-0.3-0.1-0.7-0.2-0.7-0.6C227.3,63.7,227.4,63.7,227.7,64L227.7,64z M227.7,66.9
		c0.1,0.3-0.1,0.4-0.2,0.6c-0.1-0.5-0.9-0.3-0.8-1C227.1,66.4,227.1,66.9,227.7,66.9z M225.5,65.7c-0.5,0-0.6-0.2-1.1-0.2
		C224.6,65.1,225.6,65.1,225.5,65.7z M218.3,55.2c-0.1,0.3-0.7,0.5-0.8,0.2C217.6,55.2,217.9,55.2,218.3,55.2z M180.6,63.2
		c0.3,0.6,0.7-0.3,1.3,0.2C181.7,63.6,180.5,63.8,180.6,63.2z M188.3,65.7c0.3-0.1,0.4,0.1,0.6,0.2c0,0.3-0.3,0.3-0.7,0.2
		C188.2,66,188.3,65.9,188.3,65.7z M188.4,71.2c-0.2,0.1-0.2,0.3-0.4,0.2c-0.1-0.6,0.6-0.4,1-0.4C188.9,71.5,188.8,71.2,188.4,71.2z
		 M201.6,87.5c0.2-0.2,0-0.4-0.2-0.6c0-0.3,0.5-0.1,0.7-0.2c-0.2,0.2-0.2,0.5,0.2,0.6C202.2,87.6,201.8,87.5,201.6,87.5L201.6,87.5z
		 M206.3,84.7c0-0.4,0.3-0.5,0.7-0.6c-0.1-0.3-0.7-0.1-1-0.2c0.4-0.5,1.2-0.2,1.7,0C207.5,84.5,206.8,84.6,206.3,84.7z M187,111.1
		c0.2,0.1,0.4,0.4,0.4,0.7C186.9,111.9,186.8,111.3,187,111.1z M198.8,123.2c0.4-0.1,0.7-0.7,1.1-0.4
		C199.7,123.2,199.3,123.2,198.8,123.2z M212.8,124.6c-0.2-0.2,0.2-0.6-0.2-0.7c0.3-0.5,0.4,0.4,0.8,0.2
		C213.4,124.5,213.2,124.6,212.8,124.6L212.8,124.6z M215.9,128.5c0-0.2,0.2-0.3,0.2-0.6c0.3-0.1,0.2,0.2,0.4,0.2
		C216.4,128.4,216.2,128.5,215.9,128.5z M216.2,126.9c-0.1-0.3,1-0.7,1-0.2C216.7,126.7,216.7,127,216.2,126.9z M216,125.5
		c0.8,0,1.1,0.5,1.6,0.4C217.4,126.7,216.2,126.2,216,125.5z M218.2,126.8c0.2-0.4,0.6-0.3,0.2-0.8c0.3,0.1,0.4,0.3,0.8,0.2
		C219.1,126.9,218.7,126.2,218.2,126.8z M230,96.9c-0.6-0.6-1.1,0.9-1.6,0.2c-0.5-0.2-0.1,0.5-0.6,0.2c-0.1,0.2,0.1,0.2,0.2,0.2
		c-0.2,0.4-0.5-0.2-0.8,0c-0.1-0.5,0.6-0.2,0.4-0.7C228.7,97.2,229.5,95.9,230,96.9L230,96.9z M229.1,108.5c0,0.2-0.2,0.1-0.2,0.2
		c-0.7-0.2,0.1-0.5,0-1c0.3-0.1,0.6,0,0.7,0.2C229.5,108.1,228.5,108.1,229.1,108.5z M229.6,99.8c0.1,0.3-1.6,0.2-1.8-0.2
		C228.3,99.1,228.7,99.9,229.6,99.8z M228.3,97.7c0.1-0.5,0.5,0,1-0.2C229,97.9,228.7,97.9,228.3,97.7z M229.1,100.8
		c0.4,0.2-0.9,0-0.6,0.6c-0.7-0.3-0.9,0.4-1.7,0C227.6,101,228.2,100.8,229.1,100.8L229.1,100.8z M228.5,101.8
		c-0.1,0.3-0.2,0.6-0.7,0.4C227.9,102.1,228.1,101.8,228.5,101.8z M227.5,106c0.1-0.3,0.9-0.2,0.7,0.2
		C227.8,106.4,227.8,106,227.5,106z M227.8,106.5c0,0.5-0.7,0.5-0.7,0H227.8z M227.1,104.9c0.5,0,0.9,0.2,1.3,0.2
		C228.2,105.5,226.9,105.6,227.1,104.9z M228,109.1c-0.2,0.8-1-0.1-1.6-0.4C227,108.1,227.2,109.3,228,109.1z M227.1,108.2
		c0.4-0.3,1.1-0.6,1.3-1.1C229,107.4,227.9,108.9,227.1,108.2z M229.1,111.3c-0.2,0.2-0.5,0.1-0.8,0
		C228.4,111.1,229.1,110.6,229.1,111.3z M229.2,105.3c-0.2,0.2-0.2,0.6-0.6,0.6C228.4,105.6,228.7,105.2,229.2,105.3z M227.8,104.3
		c0.4-0.9,0.9-0.6,1.8-0.4C229.1,104.6,228.5,103.8,227.8,104.3z M228.5,95.6h0.6C229.7,96.2,228.3,96.5,228.5,95.6z M228.4,96.2
		c-0.7-0.2-0.7-0.2-1.1-0.4c0.1-0.3,0.8-0.1,1.1-0.2V96.2z M228,93.9c-0.1,0.3,0.7,0.6,0.2,0.8c-0.5,0.2-0.2-0.6-0.4-0.7
		c-0.2,0.1-0.6,0.1-0.4,0.6c-0.3-0.1,0-0.7-0.6-0.6C226.9,93.7,227.6,94,228,93.9z M226.1,95.2c-0.1,0.6-0.8,0.9-1.1,0.7
		C225.4,95.7,225.5,95.1,226.1,95.2z M222,121.3c0.2,0.2,0.7,0.1,0.8,0.2C222.8,122.2,221.9,121.8,222,121.3z M223,120.9h-0.6
		c-0.2-0.2,0.1-0.9-0.6-0.7c0.2-0.3,0.3-0.4,0.2-0.8c0.4-0.1,0.7-0.2,1.1-0.4C223.1,119.5,222.9,120,223,120.9L223,120.9z
		 M224.4,96.5c0.5,0.3,0.9-0.2,1.3,0.2c-0.1,0.2-0.3,0.2-0.2,0.4C224.9,97.1,224.6,96.9,224.4,96.5L224.4,96.5z M225,98
		c0.2-0.4,0.5,0.2,0.8,0.2C225.6,98.8,225.3,98.1,225,98z M226,95.6c0.2-0.1,0.7,0.2,0.7-0.2c0.4,0.2-0.1,0.5-0.2,0.6
		c-0.2,0-0.2-0.6-0.2,0c-0.1,0-0.2-0.2-0.2-0.2L226,95.6L226,95.6z M226.1,118.2c-0.5-0.3,0.5-0.7,0.7-0.2
		C226.9,118.3,226,117.7,226.1,118.2z M226.5,110.9c0.1-0.2,0.2-0.3,0.2-0.6c0.4-0.1,0.5,0.2,0.4,0.6
		C226.8,110.8,226.9,111.2,226.5,110.9z M227.5,115.4c-0.2-0.1-0.4-0.2-0.4-0.6c0.3,0.3,0.5,0,0.7-0.2c-0.2-0.2-0.4-0.2-0.6-0.4
		c0.4-0.3,1.3,0,2-0.2c0.3,0.1,0.7,0.2,0.7,0.7C228.9,114.5,227.9,114.3,227.5,115.4L227.5,115.4z M229.4,109.7
		c0.3-0.1,0.4-0.8-0.2-0.7c0.3-0.7,0.8,0.4,1,0.8C230.1,109.6,229.7,109.6,229.4,109.7z M230.6,98.2c0-0.5,0.1-0.8,0.7-0.7
		C231.1,97.8,231,98.2,230.6,98.2z M231.1,105.5c-0.1-0.2-0.2-0.3-0.2-0.6c0.5,0.2,0.8,0.3,1.4,0.2
		C232.2,105.5,231.7,105.5,231.1,105.5z M231.2,111.9c0.4,0.2,0.6-0.1,0.8,0.2C232.1,112.5,231.2,112.3,231.2,111.9z M231.7,107
		c0.2-0.2,0.4-0.5,0.8-0.4C232.4,106.8,231.9,107.2,231.7,107z M642,170.2c0.2,0.2,1.1,0.3,1.3,0c-0.4,0.1-0.7-0.1-0.6-0.6
		C642.2,169.6,642.1,169.9,642,170.2L642,170.2z M642.3,171.1c0.1-0.7-0.9-0.2-1-0.7c-0.1-0.3,0.4-0.2,0.4-0.4
		c-0.6,0-0.8-0.2-1.3-0.4v-0.4c0.2,0.2,0.3-0.1,0.8,0c-0.1,0.5,0.2,0.7,0.4,0.7c-0.1-0.6,0.7-0.2,1-0.2c0-0.5-1-0.6-1.1-0.2
		c0-0.2-0.1-0.3-0.2-0.4c0.2-0.3,1.1,0.1,1.3-0.2c-0.9-0.2-1.3-0.5-2.1-0.2c0.5-0.2-0.2-0.8,0.4-1c0.2,0.1,0.2,0.2,0.6,0.2
		c0,0.4,0,0.7,0.4,0.7c0.2-0.2-0.5-0.7,0.2-0.4c-0.3-1.2-0.9-2.2-1.7-3c0.2,0,0.4,0,0.4-0.2c-0.2-0.1-0.3-0.4-0.6-0.6
		c0.2-0.3-0.7-2.8-1.3-2.4c0.3-1.7-1.6-3.7-2-5.7c-0.2-0.3-0.5,0.2-0.6-0.2c0.7-0.6-0.5-1.6-0.6-2.3c-0.6,0.2-1.1,0.5-1.1-0.2h0.6
		c-0.2-0.4,0.2-0.7-0.2-1c-0.9-0.1-1,0.7-1.4,1.1c-1.1-0.2-1.1,0.8-1.4,1.1c0.2-0.7-0.3-0.8-0.2-1.4c0.5-0.3,1.3-0.3,1.8-0.6
		c-0.6,0,0.1-0.6,0.2-0.6c0.2,0.2-0.4,0.5,0,0.6c1.1-0.7,1-1.2-0.2-1.8c0.2-0.2,0.5-0.1,0.4-0.4c-0.1-0.2-0.3-0.3-0.2-0.7
		c-0.4-0.1-0.3,0.2-0.7,0.2c0-0.2,0.4-0.2,0.2-0.6c-0.2-0.1-0.3,0.2-0.4,0c0-0.2,0.2-0.2,0.4-0.2c-0.2-1.2-1.8-0.1-1.4,0.4
		c0.1-0.5,0.7-0.2,0.8,0c-0.2,0.2-0.7,0.2-1,0.2c-3.5,8-7.4,15.8-10.8,24.1c0.5,0.7,2.2,0.4,3.1,0.2c1.5-2.7,2.5-5.8,3.9-8.5
		c3.2-0.1,5.8,0,9.2,0c1.1,1.6,1.4,4.1,2.9,5.4c-0.8,0.4,1.1,1.9,1,0.8c0.2,0.7,1.1-0.1,1.7,0c-0.1-0.5-0.8-0.4-1.1-0.7
		C645,171.3,643,170.3,642.3,171.1L642.3,171.1z M632.2,151.2c0.6,0.2-0.2,1.1,0.6,1.1c-0.2,0.4-0.9,0.4-1.4,0.6
		C631.6,152.4,632,151.9,632.2,151.2L632.2,151.2z M629.4,158.2c0.2-0.4,0.7,0.2,0.7,0.4C629.6,158.8,629.7,158.3,629.4,158.2z
		 M629.9,162.7c1.1-2.5,2.1-5,3.3-7.6c1.3,2.3,2.1,5,3.4,7.4C634.7,162.9,632.1,162.6,629.9,162.7z M533.4,156.3
		c0.3-1.6,0.4-4.3,0.2-6.6c-0.9-0.2-2.5-0.5-3,0.2c0.1,1-0.1,2.4,0,3.7c0.2,0,0.3-0.1,0.4-0.2c-0.6,0.3-0.6,1.9-0.2,2.5
		c0.1-0.2,0.4-0.7,0.4-0.2c0,0.2-0.2,0.2-0.2,0.4c0.2,0.2,0.7,0,0.7,0.4c-0.4,0-0.6-0.5-0.8-0.2c-0.3,3,0.2,6.2-0.2,9.5
		c0.6,0.4,0.8,0,1,0v0.7c-0.2-0.2-0.7-0.2-1-0.2c-1,3.3-3.1,5.3-7.2,5.5c-2.3-0.5-4.2-2.1-5.3-3.4c0.2,0,0.2,0.1,0.2,0.2
		c-1.7-3.9-0.7-10.7-1-16c-0.6-0.4-0.9-0.2-1.3-0.2c0.3-0.4,0.7-0.2,1.3-0.2c0.2-1.1-0.7-1.1-1.1-1.6c0.1,0.3-0.1,0.5-0.4,0.4
		c-0.4-0.3,0.5-0.5-0.2-0.7c0,0.3-0.1,0.4-0.4,0.4c0.2-0.2,0.2-0.6,0.4-0.7c0.6,0.4,1.1,0.8,1.7,1.1v-1.3c-1.4-0.4-1.9,0-2.9-0.2
		c-0.7,2.9,0,6.9-0.2,10.8c0,0.2,0.2-0.1,0.2,0.2c-0.1,0.4-0.4,0.7-0.2,1.3c0.2,0,0.5-0.1,0.6,0.2c-0.1,0.2-0.7,0-0.6,0.4
		c0,2.5-0.1,4.8,0.8,6.5c1.3,0,2.1,0.4,2.7,1.1c-1-0.2-1.6-0.6-2.3-1c-0.1,1.1,0.8,2.2,1.6,3c1.4,1.4,3.6,2.5,6,2.7
		c9.4,0.8,11.8-7.6,10.8-17.9C533.6,156.6,533.3,156.6,533.4,156.3L533.4,156.3z M532.3,150.8c-0.2-0.2-1.2-0.2-0.7,0.2
		c-0.2,0.4-0.2-0.5-0.6-0.4C531.3,150,532.3,150.2,532.3,150.8L532.3,150.8z M531.9,152.9c-0.1,0.3-0.8,0.1-0.7-0.2
		C531.7,152.5,531.7,152.9,531.9,152.9z M530.8,154c0.2-0.6,0.8-0.6,1.3-0.2C532.1,154.2,531.1,154.4,530.8,154z M531.8,155.5v-0.8
		c0.7,0.1,0.7,0.7,1.3,0.6C533,155.7,532.2,155.6,531.8,155.5z M532.3,152.5c0.1-0.2,0.7,0.2,0.7,0.6
		C532.6,153.1,532.7,152.6,532.3,152.5z M562.1,171.3c-0.8,0.2-2.4-0.2-4.1,0c-0.2,0.5,0.5,0.1,0.2,0.6c-0.7-0.6-0.6,0.2-0.6,0.4
		c-0.5-0.2-1.4-0.4-1-1h-5.5v-5.3c-0.5-0.2-0.2,0.5-0.6,0.6c-0.1-0.2-0.8,0.1-0.7-0.4c0.7-0.1,0.7-0.1,1.3-0.2
		c0.2-0.7-0.2-0.9-0.4-1.3c1.1,0.1-0.2-1.8,0.6-1.8c0.2,0.8,2.3,0.5,2.3-0.2c-0.1-0.2-0.9-0.7-0.6-0.8c0.4,0.2,0.8,0.2,0.8,0.8
		c0,0.4-0.4,0.3-0.6,0.6c1.2,0.2,3.3,0.2,4.1,0c-0.4,0-0.4-0.7,0-0.7c0.6,0.2,1,1.2,1.6,0.6c-0.2-0.5-1-0.9-0.2-1.3
		c-0.2,0.9,0.7,0.8,0.7,1.6c0.8-0.2,1.7,0.2,2.5-0.2c0.4-0.7,0.4-2.2,0-2.9c-4.3,0-6.8,0.1-10.9,0v-0.8c-0.5-0.2-0.7,0.8-0.8,0.4
		c0-0.5,0.3-0.7,0.8-0.6c-0.1-0.7,0.2-1.9-0.2-1.7c0.3-0.5,0.4-2.1,0.2-2.9c-0.6-0.1-1.1,0.7-1.3,0.6c0-1,1.1-0.7,1.4-1.1
		c-0.5-0.2-1.1-0.2-1-1c0.4,0.2,0.7,0.2,0.8,0.2c-0.1,0-0.2,0.1,0,0.2c0.3-0.2-0.1-1.2,0.4-1.3h11.1c0.2-0.3,0.3-0.7,0.2-1.1
		c-0.1-0.2-0.4-0.2-0.6-0.4c0.2-0.1,0.6-0.1,0.6-0.4c-0.1-1.3-2.6-1.1-4.5-1c-1.7,0.1-4.4,0.3-6.8,0c0.7,1.4,3,0,3.9,1
		c-0.2,0.3-0.6-0.3-0.7,0.2c0.4,0.2,1.2,0.7,0.7,1.3c-0.6-0.2-2.1-0.6-2-1.4c-1.5,1-2.6-1.9-3.7-0.6c-0.4-0.1-0.7-0.4-1.3-0.2
		c-0.2,0.2-0.5,0.9-0.2,1.1c0.4-0.1,0.3-0.5,0.7-0.6c-0.6,0.6,0.5,0.2,0.4,0.7c-0.2,0.2-0.7-0.1-1.3,0c0,1.5-0.1,2.6,0.2,3.5
		c-0.4-0.4-0.2,0.3-0.2,0.7c0.2,0,0.7-0.2,0.6,0.2c-0.2-0.1-0.2-0.2-0.6-0.2v2.1c0.2,0.1,0.7-0.2,0.7,0.2c-0.2,0.2-0.2,0.5-0.7,0.4
		v9.2c0.2,0,0.5,0,0.4,0.2c-0.2,0-0.3-0.1-0.4-0.2c-0.1,1.2,0.3,1.3,0,2.1c0.3,0.2,0.5-0.3,0.6,0c-0.3,0.2,0,0.5-0.6,0.2
		c0.2,1.3-0.4,2.5,0.6,3c-0.2,0.1-0.2,0.2-0.6,0.2c0,0.7-0.1,1.3,0.2,1.6c0.5,0.2,0.4-0.3,0.8-0.2c-0.4,0.6,1.4,0.3,1.6,0
		c1.5,0.2,4.5,0.6,6,0c1.4,0.7,3.9,0.1,5.8,0.2c0.2-0.3,0.2-1.3-0.2-1.4h0.4C562.9,172.2,562.9,171.4,562.1,171.3L562.1,171.3z
		 M560.6,162.1c0.2,0.1,0.7,0.6,0.8,0.2C562,162.6,560.3,162.8,560.6,162.1z M556.6,161c0.1,0.3,0.2,0.6,0.4,0.7
		c-0.1,0.2-0.3,0.3-0.7,0.2c0.3-0.2,0.2-0.7-0.2-0.8C556.2,161,556.5,161,556.6,161L556.6,161z M561.1,150.9c0-0.2-0.2-0.1-0.4-0.2
		c0.2-0.4,0.6,0.1,0.7,0.2c-0.2,0.4-0.6,0.7-1.3,0.6C560.1,150.8,560.7,151.5,561.1,150.9L561.1,150.9z M559.7,150.4
		c0,0.4-0.9,0.2-0.8-0.2C559.3,150.1,559.3,150.2,559.7,150.4z M549.8,150.5c0.5,0.2,0.7,0.4,1.1,0.4c0.1,0.4-0.5,0.2-0.6,0.4
		c-0.2,0-0.1-0.2,0-0.2C550.2,151,549.6,151.1,549.8,150.5z M550.1,158.3c0.1,0.4-0.4,0.2-0.2,0.7
		C549.5,158.9,549.4,158.2,550.1,158.3z M549.6,164.7c0.2-0.2,0.7-0.2,1-0.2c-0.4,0.4,0.2,0.3,0.2,0.7c-0.5,0.2-0.2-0.5-0.6-0.4
		c-0.2-0.1-0.2,0.7,0.2,0.4c-0.1,0.1-0.2,0.2-0.2,0.4C549.7,165.5,549.5,165.3,549.6,164.7z M551.4,172.8c-0.4,0.1-0.2-0.4-0.7-0.2
		c0.1-0.2,0.5-0.2,0.7-0.2V172.8z M558.3,174.2c-0.5,0-0.7-0.4-0.6-1C558.1,173.4,558.4,173.5,558.3,174.2z M65.6,74.7
		c0-0.5,0.9-0.2,0.7-0.8c-0.4-0.6-0.9-0.2-1.3,0.2c0.1-0.3,0.5-0.2,0.4-0.7c-0.9,0.1-1.7,0.7-3.4,0.6c0,0.2,0.2,0.7-0.7,0.6
		c0-1.5,1.6-0.5,2.4-1.1c-0.2-0.2-0.2-0.8,0.6-1c0.7,0.5-0.8,1,0,1.1c0.5-0.1,0.5-0.6,0.6-0.7c1.4-0.1,1.2,1.2,2.7,0.4
		c-4-10.8-12.4-18.4-23-22.7s-27.2-2.5-41.9-2.7c-1,1.6-0.6,3.9-0.6,6.1c0,6.6-0.2,14,0.2,19.9c-0.5,18.1-0.5,38.1,0,56.1
		c1,0.6,2.1,0.3,3.1,0.2c4.8-0.2,11.7,0.3,16.6,0.2c0.8,0,2.4-0.5,2.9-0.4c0.5,0.1,0.7,0.4,1.1,0.4c0.9,0,1.6-0.1,2.3-0.4
		c1.1,0.7,3.4,0.2,5.3,0c16.3-1.4,27.4-11.1,33.1-22.8c4.2-8.7,5.5-22.4,1.6-32.2C67.3,75.4,66.8,74.2,65.6,74.7z M3.3,98.3
		c-0.4,0-0.7,0-0.7-0.4C2.7,98.1,3.5,97.8,3.3,98.3z M64.6,74.5c-0.4,0.6-0.9,0.3-1.7,0.7C63,74.5,63.7,74.4,64.6,74.5z M63,76.6
		c0.2,0,0.3,0.2,0.2,0.6h-0.6C62.6,76.8,63,76.9,63,76.6z M61.3,75.6c0.1,0.3,0.7,0.2,0.6,0.6c-0.7-0.5-1.1,0.1-2,0.2
		C60.1,75.8,61.1,76,61.3,75.6z M60,73.1c0,0.5-0.6,0.4-1.1,0.4c-0.1-0.2,0.2-0.7-0.2-0.7C58.9,72.5,59.5,73.1,60,73.1z M57.8,73.1
		c0.4,0.1,0.4-0.2,0.7,0c-0.1,0.2-0.4,0.1-0.2,0.6C57.8,73.7,57.7,73.4,57.8,73.1z M45.3,51.9c0.1,0.5-0.2,0.7-0.7,0.6
		c0-0.2-0.2-0.3-0.2-0.6C44.4,51.9,45.3,51.9,45.3,51.9z M37,58.2c-0.2,0.4-0.7,0.6-1.1,0.4C36.2,58.3,36.5,58.2,37,58.2z
		 M30.1,54.5c0,0.3-1.2,0.7-1.3,0.2C29.2,54.5,29.6,54.5,30.1,54.5z M28.7,51.7c-0.2,0.4-0.7-0.2-1.1,0
		C27.7,51.1,28.4,51.5,28.7,51.7z M27.7,57.7c0.2-0.1,0.4-0.2,0.7-0.2C28.6,58.1,27.6,58.3,27.7,57.7z M28,52.7
		c0.4,0.1-0.3,0.2-0.2,0.6c-0.3,0.1-0.4-0.1-0.6-0.2C27.3,52.7,27.9,53.4,28,52.7z M21.4,49.4c0,0.2,0,0.2,0.2,0.2
		c-0.2,0.4-0.6,0-0.8,0C20.8,49.4,21.1,49.4,21.4,49.4z M10.4,123.4h0.7C11.3,124,10.3,124,10.4,123.4z M13.2,120
		c-0.4,0.1-0.2-0.2-0.6-0.2c0.1-0.4,0.2-0.2,0.6-0.2V120z M22.9,126.5c0.2-0.5,0.7-0.1,1.3-0.2C23.8,126.4,23.3,126.9,22.9,126.5z
		 M37.8,124.6c0.4-0.5,0.2,0.7,0.6,0.7C37.9,125.9,38,124.6,37.8,124.6z M48.4,112.5c-4.8,3.9-10.8,6.6-19,7.1
		c-2.6,0.2-5.6-0.3-8.6,0c-0.2,0-0.8-0.3-0.8,0.4c-1.6-0.9-4.1-0.2-6.4-0.4v-51c0-2.5,0.3-5.2,0-7.4c-0.1-0.6,0-0.7-0.4-1.1
		c0.7,0,0.3-1.1,0.4-1.7c7.1,0.2,14.6-0.6,21,0.4c0.2-0.1,0.3-0.2,0.6-0.2c-0.2,0.6,0.4-0.2,0.4,0.6c11.7,3.1,19.3,10.3,22.7,22
		c0.1,0.3,0.1,1.8,1,1.3c-0.5,0.3-0.4,0.6-0.4,1.1c0,1.4,0.6,3.4,0.6,5.1C59.4,99.6,54.5,107.4,48.4,112.5z M59.9,81.1
		c0.1-0.1,0.3-0.6,0-0.6c0-0.3,0.2,0.2,0.6,0C60.5,81.1,60.3,81.2,59.9,81.1z M60.7,81.5c-0.1-0.4,0.4-0.4,0.4-0.7
		C61.5,81,61.2,81.6,60.7,81.5z M61.3,79.4c0.2-0.9,0.8-0.6,1.7-0.6C62.4,79.1,61.8,79.7,61.3,79.4z M64,81.3
		c-0.7,0-0.9-0.3-1.4-0.4c0.6-0.2,1.1,0.4,1.6-0.2C64,80.7,64,81,64,81.3z M64,79.2c-0.1-0.4,0.2-0.3,0.2-0.7
		c0.2,0.1,0.3,0.2,0.6,0.2C64.6,79,64.4,79.2,64,79.2z M65.3,78.8c-0.3-0.1-0.5-0.3-0.7-0.6C64.8,77.9,65.4,78.3,65.3,78.8z
		 M66.4,78.3c-0.5-0.2-0.6-0.8-1-1.1c0.6-0.1,0.5,0.5,1.1,0.2C66.6,77.8,66.3,77.9,66.4,78.3z M66.8,76c0.8,0.2-0.2,0.7,0.2,1
		c-0.1,0.3-0.8,0.1-0.7-0.2c0.3,0.1,0.5-0.1,0.4-0.4c-0.4-0.1-0.2,0.4-0.7,0.2c0.3-0.5,0.6-1.1,1.4-1C67.3,75.8,67.2,76,66.8,76z
		 M436.2,150.9c0.1-0.5,0-0.9-0.2-1.3c-3.3-0.5-7.5-0.4-10.2,0.2c-0.2-0.7-2.1-0.2-2.7-0.2c0.1,0.2,0.8,0.7,0.6,0.8
		c-0.4-0.2-0.7-0.4-1-0.7c-0.2,0.2,0.2,0.6-0.2,0.2c-0.1-0.4,0.2-0.4,0-0.7c-0.7-0.1-0.9,0.2-1.6,0.2c-0.2,0.2-0.2,0.7-0.6,0.8
		c-0.2,0-0.5,0.1-0.6-0.2c0.1-0.3,0.9,0,0.7-0.6c-0.9,0.1-0.7,0.3-1.4-0.2c-0.5,0.5,0.3,0.4,0.2,0.8c-0.3,0.1-0.4-0.4-0.4,0.2v0.2
		c0,0.3,0.2-0.2,0.6,0c-0.2,0.8,0.6,0.6,0.7,1c-0.4,0.2-0.9,0.3-1.3,0c0.2,1.1,3.2,0.7,3.7,0.2c0,0.2-0.1,0.3-0.2,0.4
		c1.4,0.2,2-0.2,3.4,0c-0.2,0.7,0.6,0.3,0.4,1c-0.2,0-0.2-0.2-0.4-0.2c0,1.1-0.2,2.3,0.4,2.9c-0.2,0-0.2-0.2-0.4-0.2v1.3
		c0.5,0,1,0,0.8,0.6c-0.2-0.1-0.1-0.4-0.6-0.2c-0.1,0.3-0.3,0.4-0.2,0.8c0.2,0.3,0.3-0.2,0.4,0.2c-0.7,0.2-0.2,1.1-0.2,1.7
		c0,2-0.2,4.8-0.2,7.2c0.3,0,0.5,0,0.6,0.2c-0.2,0.2-0.3,0.2-0.6,0c0.1,0.9,0.1,1,0.4,1.6c-0.2,0-0.3-0.1-0.4-0.2
		c0.1,1.1-0.2,2.7,0.4,3.3c-1,0,0.1,1.1-0.4,1.6c0.4,0.7,1.8,0.3,2.9,0.4c0.8-0.7,0.2-2.9,0.4-4.3c-0.3-0.4-1.6,0-1.6-0.7
		c0.5,0,1.1-0.5,1.3,0c0.2-0.2,0.4-0.7,0-0.8c0.7-2,0.2-5.1,0.2-7.6c0-0.2-0.5-0.1-0.4-0.4c0.7,0.1,0.5-2,0.2-2.1
		c0.7-1.5,0.1-4.2,0.2-6.1c0.6,0.1,0.7-0.2,1.1-0.2c0.5,0.6,1.9,0,2.7-0.2c-0.2,0.6,0.9,0.7,1.1,0.4c-0.2-0.1-0.6-0.1-0.4-0.6
		c-0.5-0.2-0.7,0.3-0.8-0.2c0.4-0.1,0.7-1.4,1.1-0.6c-0.7-0.1,0.1,1.2,0.2,0.7c-0.4-0.2,0-0.7,0.2-0.7c0.2,0.7,0.8,0.9,1.6,1
		C436.1,151.2,436.3,151.3,436.2,150.9c-0.4-0.1-0.2,0.5-0.5,0.6c-0.1-0.2-0.3-0.3-0.2-0.7C435.7,151.5,435.8,150.9,436.2,150.9
		L436.2,150.9z M420.6,151.5c0-0.2,0.1-0.6-0.2-0.6c0.3,0.1,1.1,0.2,1.1-0.7c0.2,0,0.3,0.2,0.6,0.2c-0.2,0.4-0.2,1.1,0.2,0.7
		C422.6,151.9,421.4,151,420.6,151.5z M423.4,151.4c-0.2-0.2-0.7-0.1-0.6-0.6C423.3,150.7,423.5,150.9,423.4,151.4z M424.8,152v-0.7
		c0.3,0,0.5,0,0.6-0.2C425.7,151.1,425.2,151.9,424.8,152z M425.4,152c0.1-0.7,1.4-1.2,1.6-0.2C426.2,151.5,426,151.9,425.4,152z
		 M426.5,160.6c0.2,0.4,1.1,0.1,1.1,0.7c-0.4-0.1-0.3,0.2-0.7,0.2C427.1,160.9,426.4,161.2,426.5,160.6L426.5,160.6z M426.9,166.7
		c0.2-0.5-0.2-0.5-0.6-0.4c0.1-0.4,0.4-0.5,0.7-0.6c0.3,0.2-0.3,0.7,0.4,0.6C427.3,166.5,427.3,166.8,426.9,166.7z M427.1,161.7
		c0-0.2,1-0.2,1,0C428.1,162.3,427.2,161.9,427.1,161.7z M427.5,165.8c-0.1-0.4,0.5-0.2,0.6-0.4
		C428.5,165.7,427.7,166.2,427.5,165.8z M428.4,152c-0.2-0.5-0.7-0.4-1.4-0.7c0-0.4,0.5-0.2,0.2-0.8h0.7c-0.1,0.2-0.2,0.6-0.4,0.7
		c0.6,0.2,1.4,0.2,1.7,0.7C429.1,152.3,428.4,151.5,428.4,152z M429.8,151.1c0-0.3,0.6-0.2,0.6-0.6c0.4-0.1-0.3,0.5,0.2,0.6
		C430.4,151.5,430.1,151,429.8,151.1z M434.3,149.9c-0.1-0.4,0.7,0.1,0.7-0.2C435.6,149.9,434.5,150.2,434.3,149.9z M641,172.6
		c0.2,0.2,0.2,0.5,0.4,0.7c0.6,0,0.7-0.6,1.1-0.7C641.7,172.8,641.4,172.5,641,172.6z"/>
</g>
</svg>
